<svg xmlns="http://www.w3.org/2000/svg" width="664.571" height="307.955" viewBox="0 0 664.571 307.955">
  <g id="Group_8" data-name="Group 8" transform="translate(-347.036 -270.464)">
    <g id="Group_1" data-name="Group 1">
      <path id="Path_1" data-name="Path 1" d="M485.345,283.592l-29.083-11.628L349,333.177V501.933c1.238,27.895,1.423,51.658,12.84,58.856,13.613,8.583,36.68,13.934,36.68,13.934L395.9,334.636Z" fill="#262626" stroke="#fff" stroke-linecap="round" stroke-linejoin="round" stroke-width="3"/>
      <line id="Line_1" data-name="Line 1" x2="27.644" y2="11.628" transform="translate(349 333.177)" stroke="#fff" stroke-linecap="round" stroke-linejoin="round" stroke-width="3"/>
      <path id="Path_2" data-name="Path 2" d="M485.345,283.592,378.083,344.806s-.223,170.455-.223,171.507c0,31.373,6.255,51.362,18.568,57.537,22.339,11.2,56.245-11.218,75.732-50.076,7.621-15.2,11.861-30.636,12.919-44.5ZM452.034,516.931c-10.438,20.814-28,33.125-39.222,27.5s-11.862-27.065-1.424-47.879,28-33.124,39.222-27.5S462.471,496.117,452.034,516.931Z" fill="#0d0d0d" stroke="#fff" stroke-linecap="round" stroke-linejoin="round" stroke-width="3"/>
      <path id="Path_3" data-name="Path 3" d="M450.282,469.042c-4.091-2.052-9.032-1.667-14.155.592,1.229,9.256-.99,21.331-6.991,33.3C422.5,516.159,413,525.9,404.069,529.836c.908,6.842,3.645,12.188,8.415,14.58,11.224,5.629,28.784-6.682,39.222-27.5S461.506,474.67,450.282,469.042Z" stroke="#fff" stroke-linecap="round" stroke-linejoin="round" stroke-width="3"/>
      <path id="Path_4" data-name="Path 4" d="M462.118,324.959l.521,28.065-61.558,36.357-.516-27.814Z" stroke="#fff" stroke-linecap="round" stroke-linejoin="round" stroke-width="3"/>
      <path id="Path_5" data-name="Path 5" d="M445.229,425.179c-4.46,8.893-11.962,14.152-16.757,11.748s-5.068-11.563-.609-20.456,11.962-14.152,16.757-11.747S449.688,416.287,445.229,425.179Z" stroke="#fff" stroke-linecap="round" stroke-linejoin="round" stroke-width="3"/>
    </g>
    <g id="Group_5" data-name="Group 5">
      <path id="Path_6" data-name="Path 6" d="M582.043,451.454c-4.438-2.226-9.8-1.808-15.354.642,1.333,10.041-1.074,23.139-7.584,36.12-7.2,14.347-17.5,24.912-27.19,29.183.985,7.422,3.953,13.22,9.128,15.816,12.175,6.1,31.222-7.249,42.545-29.826S594.218,457.559,582.043,451.454Z" fill="#1c6b58" stroke="#fff" stroke-linecap="round" stroke-linejoin="round" stroke-width="3"/>
      <path id="Path_7" data-name="Path 7" d="M750.254,353.866c-4.438-2.226-9.8-1.808-15.354.642,1.333,10.04-1.074,23.139-7.584,36.12-7.2,14.347-17.5,24.912-27.19,29.183.985,7.422,3.953,13.22,9.128,15.815,12.175,6.106,31.222-7.248,42.545-29.825S762.429,359.971,750.254,353.866Z" fill="#1c6b58" stroke="#fff" stroke-linecap="round" stroke-linejoin="round" stroke-width="3"/>
      <g id="Group_4" data-name="Group 4">
        <g id="Group_3" data-name="Group 3">
          <g id="Group_2" data-name="Group 2">
            <path id="Path_8" data-name="Path 8" d="M730.78,309.686c-19.325-9.582-57.094,13.937-75.92,24.464L525.566,411.5c-29.533,18.619-46.868,41.09-51.6,69.453-2.946,17.649,1.4,42.658,6.018,50.606,8.451,14.546,54.291,27.768,54.291,27.768L517.04,460.161,732.647,338.048c5.575-2.861,42.948-2.936,37.551-6.122Z" fill="#259680" stroke="#fff" stroke-linecap="round" stroke-linejoin="round" stroke-width="3"/>
          </g>
        </g>
      </g>
      <path id="Path_9" data-name="Path 9" d="M650.332,428.057c4.886,3.216,4.013,13.169-1.95,22.23s-14.759,13.8-19.645,10.585-4.013-13.168,1.95-22.23S645.445,424.842,650.332,428.057Z" fill="#368476" stroke="#fff" stroke-linecap="round" stroke-linejoin="round" stroke-width="3"/>
      <path id="Path_10" data-name="Path 10" d="M704.224,339.471l-44.4,25.694S540.8,435.991,531.013,444.692c-47.179,41.923-25.533,94.831-15.559,104.681,10.686,10.553,32.3,15.826,48.653,6.353l127.819-74.054c18.817-10.9,12.813-7.459,46.032-26.666,18.164-10.5,48.018-43.87,43.777-94.228C779.287,331.711,760.642,306.873,704.224,339.471ZM582.745,502.279c-11.322,22.577-30.369,35.932-42.544,29.826s-12.867-29.358-1.545-51.935,30.371-35.931,42.546-29.826S594.067,479.7,582.745,502.279Zm168.533-98.231c-11.322,22.579-30.37,35.932-42.544,29.827s-12.867-29.357-1.545-51.936,30.369-35.931,42.544-29.826S762.6,381.472,751.278,404.048Z" fill="#368476" stroke="#fff" stroke-linecap="round" stroke-linejoin="round" stroke-width="3"/>
      <path id="Path_11" data-name="Path 11" d="M653.99,447.169c-4.838,9.646-12.976,15.352-18.177,12.743s-5.5-12.543-.66-22.189,12.975-15.351,18.177-12.742S658.827,437.523,653.99,447.169Z" fill="#1c6b58" stroke="#fff" stroke-linecap="round" stroke-linejoin="round" stroke-width="3"/>
    </g>
    <g id="Group_7" data-name="Group 7">
      <circle id="Ellipse_1" data-name="Ellipse 1" cx="64.519" cy="64.519" r="64.519" transform="translate(742.299 364.607)" fill="#fbc53a" stroke="#fff" stroke-linecap="round" stroke-linejoin="round" stroke-width="3"/>
      <g id="Group_6" data-name="Group 6">
        <path id="Path_12" data-name="Path 12" d="M833.133,444.922,826.16,449.9v25.718l39.018-3.094V449.9Z" fill="#dc9329" stroke="#fff" stroke-linecap="round" stroke-linejoin="round" stroke-width="3"/>
        <path id="Path_13" data-name="Path 13" d="M991.364,459.035h18.713v33.206s.989,8.068-15.009,17.2l-53.795,29.373s-28.474,14.778-54.209,5.342L812.047,513V483.648l80.527,13.574Z" fill="#f8cc6c" stroke="#fff" stroke-linecap="round" stroke-linejoin="round" stroke-width="3"/>
        <path id="Path_14" data-name="Path 14" d="M1000.3,453.169,922.46,425l-47.17,22.678-30.833-10.843-18.3,13.07,26.757,10.5-40.87,23.246L889.735,516.1c18.454,7.708,31.084,3.412,48.5-6.422l63.687-37.148C1013.388,466.051,1012.686,457.651,1000.3,453.169Z" fill="#fbc53a" stroke="#fff" stroke-linecap="round" stroke-linejoin="round" stroke-width="3"/>
        <ellipse id="Ellipse_2" data-name="Ellipse 2" cx="21.584" cy="9.401" rx="21.584" ry="9.401" transform="translate(896.724 464.846)" fill="#dc9329" stroke="#fff" stroke-linecap="round" stroke-linejoin="round" stroke-width="3"/>
      </g>
    </g>
  </g>
</svg>
