<svg xmlns="http://www.w3.org/2000/svg" width="188.143" height="464.515" viewBox="0 0 188.143 464.515">
  <g id="Group_97" data-name="Group 97" transform="translate(-541.604 -65.915)">
    <g id="Group_48" data-name="Group 48">
      <g id="Group_18" data-name="Group 18">
        <path id="Path_39" data-name="Path 39" d="M684.116,385.089l-3.649-1.459-13.458,7.681v21.173c.155,3.5.178,6.481,1.611,7.384a18.433,18.433,0,0,0,4.6,1.748l-.329-30.122Z" fill="#28856d" stroke="#1a1818" stroke-linecap="round" stroke-linejoin="round" stroke-width="0.25"/>
        <line id="Line_2" data-name="Line 2" x2="3.468" y2="1.459" transform="translate(667.009 391.311)" fill="#ef8b20" stroke="#000" stroke-linecap="round" stroke-linejoin="round" stroke-width="0.25"/>
        <g id="Group_17" data-name="Group 17">
          <path id="Path_40" data-name="Path 40" d="M684.116,385.089l-13.458,7.68s-.028,21.387-.028,21.519c0,3.936.785,6.444,2.329,7.219,2.8,1.4,7.057-1.408,9.5-6.283a15.254,15.254,0,0,0,1.621-5.583Z" fill="#2f7362" stroke="#1a1818" stroke-linecap="round" stroke-linejoin="round" stroke-width="0.25"/>
        </g>
        <path id="Path_41" data-name="Path 41" d="M681.2,390.279l.065,3.521-7.723,4.562-.065-3.49Z" fill="#86d3ed" stroke="#000" stroke-linecap="round" stroke-linejoin="round" stroke-width="0.25"/>
        <path id="Path_42" data-name="Path 42" d="M679.082,402.854c-.559,1.115-1.5,1.775-2.1,1.474s-.636-1.451-.076-2.567,1.5-1.776,2.1-1.474S679.642,401.738,679.082,402.854Z" fill="#cdcdcc" stroke="#000" stroke-linecap="round" stroke-linejoin="round" stroke-width="0.25"/>
      </g>
      <g id="Group_24" data-name="Group 24">
        <g id="Group_19" data-name="Group 19">
          <path id="Path_43" data-name="Path 43" d="M711.206,507.649l2.85,15.919,3.249-1.854s-.047-8.743-.076-9.117c-.572-7.487-3.331-9.218-6.593-11.027-1.47-.815-5.86-2.2-8.819-3.8a28.114,28.114,0,0,1-5.754-3.891c-1.915-1.574-4.432-4.067-6.3-4.633-4.213-1.278-7.629,2.582-7.629,2.582l4.169.809Z" fill="#fa9f00" stroke="#1a1818" stroke-linecap="round" stroke-linejoin="round" stroke-width="0.25"/>
          <path id="Path_44" data-name="Path 44" d="M684.453,494.561a2.537,2.537,0,0,1,2.151-.119,8.714,8.714,0,0,0,1.171,5.625,8.119,8.119,0,0,0,4.093,3.9,2.787,2.787,0,0,1-1.189,1.918c-1.729,1.04-4.524-.65-6.243-3.776S682.725,495.6,684.453,494.561Z" fill="#ffb724" stroke="#1a1818" stroke-linecap="round" stroke-linejoin="round" stroke-width="0.25"/>
          <path id="Path_45" data-name="Path 45" d="M704.029,505.791a2.535,2.535,0,0,1,2.15-.119,8.715,8.715,0,0,0,1.172,5.625,8.111,8.111,0,0,0,4.093,3.9,2.785,2.785,0,0,1-1.189,1.918c-1.729,1.04-4.524-.65-6.244-3.776S702.3,506.831,704.029,505.791Z" fill="#ffb724" stroke="#1a1818" stroke-linecap="round" stroke-linejoin="round" stroke-width="0.25"/>
          <path id="Path_46" data-name="Path 46" d="M680.66,503.7l33.4,19.865.07-8.3c-.231-8.617-3.35-10.34-6.738-11.841-1.533-.68-5.86-2.2-8.82-3.8a28.106,28.106,0,0,1-5.753-3.892,46.116,46.116,0,0,0-6.3-4.632c-2.954-1.52-5.8,1.148-5.858,4.317C680.582,500.015,680.66,503.7,680.66,503.7Zm4.382-8.453c1.474-.88,3.855.532,5.318,3.152s1.456,5.458-.018,6.338-3.855-.532-5.319-3.153S683.568,496.129,685.042,495.249Z" fill="#ffb724" stroke="#1a1818" stroke-linecap="round" stroke-linejoin="round" stroke-width="0.25"/>
          <ellipse id="Ellipse_7" data-name="Ellipse 7" cx="1.701" cy="2.657" rx="1.701" ry="2.657" transform="translate(695.176 503.867) rotate(-20.296)" fill="#ffb724" stroke="#1a1818" stroke-linecap="round" stroke-linejoin="round" stroke-width="0.25"/>
        </g>
        <g id="Group_20" data-name="Group 20">
          <circle id="Ellipse_8" data-name="Ellipse 8" cx="9.31" cy="9.31" r="9.31" transform="translate(672.874 493.232)" fill="#cfcfcf" stroke="#1a1818" stroke-linecap="round" stroke-linejoin="round" stroke-width="0.25"/>
          <path id="Path_47" data-name="Path 47" d="M682.184,420.4c2.55,0,4.617.5,4.617,1.125v72.605c0,.734-1.119,2.3-4.617,2.3-3.2,0-4.617-1.568-4.617-2.3V421.521C677.567,420.9,679.634,420.4,682.184,420.4Z" fill="#c4c4c3" stroke="#1a1818" stroke-linecap="round" stroke-linejoin="round" stroke-width="0.25"/>
          <circle id="Ellipse_9" data-name="Ellipse 9" cx="9.31" cy="9.31" r="9.31" transform="translate(672.874 406.646)" fill="#cfcfcf" stroke="#1a1818" stroke-linecap="round" stroke-linejoin="round" stroke-width="0.25"/>
        </g>
        <g id="Group_21" data-name="Group 21">
          <path id="Path_48" data-name="Path 48" d="M696.838,502.233c.872-.306,2.075.86,2.686,2.6s.4,3.4-.472,3.711L680.358,515.1l-2.214-6.314Z" fill="#cfcfcf" stroke="#1a1818" stroke-linecap="round" stroke-linejoin="round" stroke-width="0.25"/>
          <path id="Path_49" data-name="Path 49" d="M695.39,509.831c.871-.306,1.083-1.967.471-3.711s-1.813-2.909-2.685-2.6" fill="#cfcfcf" stroke="#1a1818" stroke-linecap="round" stroke-linejoin="round" stroke-width="0.25"/>
        </g>
        <circle id="Ellipse_10" data-name="Ellipse 10" cx="8.929" cy="8.929" r="8.929" transform="translate(692.555 504.948)" fill="#2f7362" stroke="#1a1818" stroke-linecap="round" stroke-linejoin="round" stroke-width="0.25"/>
        <g id="Group_22" data-name="Group 22">
          <path id="Path_50" data-name="Path 50" d="M697.754,514.082,700.6,530l3.248-1.854s-.047-8.743-.075-9.116c-.573-7.487-3.331-9.218-6.593-11.027-1.47-.816-5.86-2.2-8.82-3.8a28.143,28.143,0,0,1-5.754-3.892c-1.915-1.573-4.432-4.066-6.3-4.632-4.213-1.279-7.628,2.582-7.628,2.582l4.168.809Z" fill="#fa9f00" stroke="#1a1818" stroke-linecap="round" stroke-linejoin="round" stroke-width="0.25"/>
          <path id="Path_51" data-name="Path 51" d="M671,500.994a2.535,2.535,0,0,1,2.15-.119,8.712,8.712,0,0,0,1.172,5.624,8.107,8.107,0,0,0,4.093,3.9,2.785,2.785,0,0,1-1.19,1.919c-1.728,1.04-4.523-.65-6.243-3.776S669.272,502.034,671,500.994Z" fill="#fa9f00" stroke="#1a1818" stroke-linecap="round" stroke-linejoin="round" stroke-width="0.25"/>
          <path id="Path_52" data-name="Path 52" d="M690.576,512.224a2.537,2.537,0,0,1,2.151-.119,8.71,8.71,0,0,0,1.171,5.624,8.111,8.111,0,0,0,4.093,3.9,2.788,2.788,0,0,1-1.189,1.919c-1.729,1.04-4.524-.65-6.243-3.776S688.848,513.264,690.576,512.224Z" fill="#fa9f00" stroke="#1a1818" stroke-linecap="round" stroke-linejoin="round" stroke-width="0.25"/>
          <path id="Path_53" data-name="Path 53" d="M667.207,510.135,700.6,530l.069-8.3c-.23-8.617-3.35-10.34-6.738-11.841-1.533-.68-5.86-2.2-8.819-3.8a28.154,28.154,0,0,1-5.754-3.892,46.048,46.048,0,0,0-6.3-4.632c-2.955-1.52-5.8,1.148-5.859,4.317C667.129,506.448,667.207,510.135,667.207,510.135Zm24.164,3.123c1.474-.879,3.855.532,5.319,3.152s1.455,5.458-.019,6.338-3.855-.532-5.318-3.152S689.9,514.138,691.371,513.258Zm-19.782-11.576c1.474-.88,3.855.531,5.319,3.152s1.455,5.458-.019,6.337-3.855-.531-5.318-3.152S670.116,502.561,671.589,501.682Z" fill="#ffb724" stroke="#1a1818" stroke-linecap="round" stroke-linejoin="round" stroke-width="0.25"/>
          <ellipse id="Ellipse_11" data-name="Ellipse 11" cx="1.701" cy="2.657" rx="1.701" ry="2.657" transform="translate(681.724 510.3) rotate(-20.296)" fill="#cfcfcf" stroke="#1a1818" stroke-linecap="round" stroke-linejoin="round" stroke-width="0.25"/>
        </g>
        <g id="Group_23" data-name="Group 23">
          <path id="Path_54" data-name="Path 54" d="M705.126,516.063l-.965.689v3.559l5.4-.428v-3.131Z" fill="#1d604f" stroke="#1a1818" stroke-linecap="round" stroke-linejoin="round" stroke-width="0.25"/>
          <path id="Path_55" data-name="Path 55" d="M727.024,518.016h2.59v4.6s.137,1.116-2.077,2.38l-7.445,4.065s-3.941,2.045-7.5.739l-10.382-4.312v-4.062l11.144,1.879Z" fill="#1d604f" stroke="#1a1818" stroke-linecap="round" stroke-linejoin="round" stroke-width="0.25"/>
          <path id="Path_56" data-name="Path 56" d="M728.261,517.2l-10.773-3.9-6.528,3.139-4.267-1.5-2.532,1.809,3.7,1.453-5.656,3.217,10.751,4.491c2.554,1.067,4.3.472,6.712-.889l8.814-5.141C730.072,518.987,729.975,517.824,728.261,517.2Z" fill="#2f7362" stroke="#1a1818" stroke-linecap="round" stroke-linejoin="round" stroke-width="0.25"/>
          <ellipse id="Ellipse_12" data-name="Ellipse 12" cx="2.987" cy="1.301" rx="2.987" ry="1.301" transform="translate(713.927 518.82)" fill="#1d604f" stroke="#1a1818" stroke-linecap="round" stroke-linejoin="round" stroke-width="0.25"/>
        </g>
      </g>
      <g id="Group_25" data-name="Group 25">
        <path id="Path_57" data-name="Path 57" d="M678.185,401.06c-.83-.291-1.973.818-2.555,2.476s-.38,3.239.449,3.53l17.782,6.234,2.1-6Z" fill="#cdcdcc" stroke="#000" stroke-linecap="round" stroke-linejoin="round" stroke-width="0.25"/>
        <path id="Path_58" data-name="Path 58" d="M679.563,408.287c-.83-.291-1.03-1.871-.449-3.529s1.725-2.767,2.554-2.477" fill="none" stroke="#000" stroke-linecap="round" stroke-linejoin="round" stroke-width="0.25"/>
      </g>
      <g id="Group_29" data-name="Group 29">
        <g id="Group_28" data-name="Group 28">
          <g id="Group_27" data-name="Group 27">
            <g id="Group_26" data-name="Group 26">
              <path id="Path_59" data-name="Path 59" d="M667.542,299.483l3.4,1.15,2.41-29.334,7.935-5.917-5.234-.519c-4.138-.34-8.511,5.429-8.478,12.882Z" fill="#fa9f00" stroke="#1a1818" stroke-linecap="round" stroke-linejoin="round" stroke-width="0.25"/>
            </g>
          </g>
        </g>
        <path id="Path_60" data-name="Path 60" d="M682.545,265.771c-2.726-1.367-7.767.287-10.144,5.028a17.011,17.011,0,0,0-1.427,5.956l-.032,23.878,13.089-7.469s.027-22.94.027-23.068C684.06,267.981,684.048,266.524,682.545,265.771Zm-2.578,8.876c-1.274,2.54-3.417,4.042-4.786,3.356s-1.448-3.3-.174-5.843,3.416-4.042,4.786-3.355S681.24,272.108,679.967,274.647Z" fill="#fa9f00" stroke="#1a1818" stroke-linecap="round" stroke-linejoin="round" stroke-width="0.25"/>
        <path id="Path_61" data-name="Path 61" d="M673.776,295.586l-.064-3.425,7.512-4.436.063,3.394Z" fill="#86d3ed" stroke="#000" stroke-linecap="round" stroke-linejoin="round" stroke-width="0.25"/>
        <path id="Path_62" data-name="Path 62" d="M676.44,283.1c.545-1.085,1.46-1.727,2.045-1.433s.619,1.411.074,2.5-1.459,1.727-2.044,1.433S675.9,284.187,676.44,283.1Z" fill="#cdcdcc" stroke="#000" stroke-linecap="round" stroke-linejoin="round" stroke-width="0.25"/>
        <path id="Path_63" data-name="Path 63" d="M679.779,268.8a2,2,0,0,0-1.727.072,7.316,7.316,0,0,1-.853,4.063,6.968,6.968,0,0,1-3.059,3.283A2.184,2.184,0,0,0,675.167,278c1.37.687,3.512-.815,4.786-3.355S681.149,269.49,679.779,268.8Z" fill="#fa9f00" stroke="#1a1818" stroke-linecap="round" stroke-linejoin="round" stroke-width="0.25"/>
      </g>
      <g id="Group_32" data-name="Group 32">
        <g id="Group_30" data-name="Group 30">
          <path id="Path_64" data-name="Path 64" d="M694.9,394.165l-23.843,1.688.048,4.069,9.49,3.65,2.155-1.683,4.392.623,7.824-4.759Z" fill="#c4c4c3" stroke="#1a1818" stroke-linecap="round" stroke-linejoin="round" stroke-width="0.25"/>
          <path id="Path_65" data-name="Path 65" d="M683.271,388.79l-12.2,7.1,9.49,3.65,2.155-1.683,4.392.623,9.453-5.664Z" fill="#cfcfcf" stroke="#1a1818" stroke-linecap="round" stroke-linejoin="round" stroke-width="0.25"/>
        </g>
        <path id="Path_66" data-name="Path 66" d="M683.014,296.115c-2.425,0-4.391.422-4.391.943v96.055c0,.615,1.064,1.928,4.391,1.928,3.047,0,4.392-1.313,4.392-1.928V297.058C687.406,296.537,685.44,296.115,683.014,296.115Z" fill="#c4c4c3" stroke="#1a1818" stroke-linecap="round" stroke-linejoin="round" stroke-width="0.25"/>
        <g id="Group_31" data-name="Group 31">
          <path id="Path_67" data-name="Path 67" d="M694.9,291.5l-23.843,1.688.048,4.069,9.49,3.65,2.155-1.683,4.392.623,7.824-4.759Z" fill="#c4c4c3" stroke="#1a1818" stroke-linecap="round" stroke-linejoin="round" stroke-width="0.25"/>
          <path id="Path_68" data-name="Path 68" d="M694.869,287.469l-11.6-1.343-12.2,7.1,9.49,3.65,2.155-1.683,4.392.623,7.824-4.759Z" fill="#cfcfcf" stroke="#1a1818" stroke-linecap="round" stroke-linejoin="round" stroke-width="0.25"/>
        </g>
      </g>
      <g id="Group_33" data-name="Group 33">
        <path id="Path_69" data-name="Path 69" d="M678.349,281.47c-.829-.291-1.973.818-2.554,2.477s-.381,3.238.448,3.529l17.782,6.234,2.106-6.005Z" fill="#cdcdcc" stroke="#000" stroke-linecap="round" stroke-linejoin="round" stroke-width="0.25"/>
        <path id="Path_70" data-name="Path 70" d="M679.727,288.7c-.829-.29-1.03-1.871-.448-3.529s1.725-2.767,2.554-2.476" fill="none" stroke="#000" stroke-linecap="round" stroke-linejoin="round" stroke-width="0.25"/>
      </g>
      <g id="Group_35" data-name="Group 35">
        <path id="Path_71" data-name="Path 71" d="M697.477,390.535l-3.649-1.459-13.458,7.68V417.93c.156,3.5.179,6.481,1.611,7.384a18.435,18.435,0,0,0,4.6,1.748l-.329-30.122Z" fill="#28856d" stroke="#1a1818" stroke-linecap="round" stroke-linejoin="round" stroke-width="0.25"/>
        <line id="Line_3" data-name="Line 3" x2="3.468" y2="1.459" transform="translate(680.37 396.756)" fill="#ef8b20" stroke="#000" stroke-linecap="round" stroke-linejoin="round" stroke-width="0.25"/>
        <g id="Group_34" data-name="Group 34">
          <path id="Path_72" data-name="Path 72" d="M697.477,390.535l-13.458,7.68s-.028,21.387-.028,21.519c0,3.936.785,6.444,2.33,7.219,2.8,1.4,7.057-1.408,9.5-6.283a15.254,15.254,0,0,0,1.621-5.583ZM693.3,419.811c-1.31,2.612-3.513,4.156-4.921,3.45s-1.489-3.395-.179-6.007,3.513-4.156,4.921-3.45S694.607,417.2,693.3,419.811Z" fill="#2f7362" stroke="#1a1818" stroke-linecap="round" stroke-linejoin="round" stroke-width="0.25"/>
          <path id="Path_73" data-name="Path 73" d="M693.078,413.8a2.061,2.061,0,0,0-1.776.074,7.524,7.524,0,0,1-.877,4.178,7.171,7.171,0,0,1-3.145,3.375,2.245,2.245,0,0,0,1.056,1.83c1.408.706,3.611-.839,4.921-3.45S694.486,414.509,693.078,413.8Z" fill="#1d604f" stroke="#1a1818" stroke-linecap="round" stroke-linejoin="round" stroke-width="0.25"/>
        </g>
        <path id="Path_74" data-name="Path 74" d="M694.563,395.725l.065,3.521-7.723,4.562-.065-3.49Z" fill="#c4c4c3" stroke="#1a1818" stroke-linecap="round" stroke-linejoin="round" stroke-width="0.25"/>
        <path id="Path_75" data-name="Path 75" d="M692.444,408.3c-.56,1.115-1.5,1.775-2.1,1.473s-.635-1.45-.076-2.566,1.5-1.776,2.1-1.474S693,407.184,692.444,408.3Z" fill="#cdcdcc" stroke="#000" stroke-linecap="round" stroke-linejoin="round" stroke-width="0.25"/>
      </g>
      <g id="Group_41" data-name="Group 41">
        <g id="Group_36" data-name="Group 36">
          <path id="Path_76" data-name="Path 76" d="M640.792,267.311a2.563,2.563,0,0,0-1.843-.046,7.285,7.285,0,0,1-.6,4.832,6.8,6.8,0,0,1-3.778,3.784,2.762,2.762,0,0,0,1.423,1.868c1.778.818,4.295-.855,5.621-3.737S642.571,268.129,640.792,267.311Z" fill="#e96896" stroke="#000" stroke-linecap="round" stroke-linejoin="round" stroke-width="0.25"/>
          <path id="Path_77" data-name="Path 77" d="M639.1,260.824c-5.443-1.055-8.784,4.436-8.784,4.436l-11.3,19.348a2.983,2.983,0,0,0-.408,1.507v24.043l3.266,1.614V287.747l13.683-21.937,8.238-2.425Z" fill="#28856d" stroke="#1a1818" stroke-linecap="round" stroke-linejoin="round" stroke-width="0.25"/>
          <path id="Path_78" data-name="Path 78" d="M653.625,270.417a2,2,0,0,0-.992-1.749l-9.031-5.395a6.138,6.138,0,0,0-6.462.03,12.9,12.9,0,0,0-3.559,3.633l-11.3,19.348a2.989,2.989,0,0,0-.407,1.507v24.043l31.909-17.982Zm-12.452,3.466c-1.379,2.749-3.7,4.375-5.181,3.632s-1.566-3.575-.188-6.324,3.7-4.375,5.181-3.632S642.551,271.134,641.173,273.883Z" fill="#2f7362" stroke="#1a1818" stroke-linecap="round" stroke-linejoin="round" stroke-width="0.25"/>
          <path id="Path_79" data-name="Path 79" d="M630.8,287.842c-.663,1.441-1.921,2.278-2.811,1.869s-1.072-1.909-.409-3.35,1.921-2.278,2.81-1.869S631.461,286.4,630.8,287.842Z" fill="#cdcdcc" stroke="#000" stroke-linecap="round" stroke-linejoin="round" stroke-width="0.25"/>
          <path id="Path_80" data-name="Path 80" d="M640.724,288.28c-.663,1.441-1.921,2.278-2.811,1.869s-1.072-1.909-.409-3.35,1.921-2.278,2.81-1.869S641.387,286.839,640.724,288.28Z" fill="#cdcdcc" stroke="#000" stroke-linecap="round" stroke-linejoin="round" stroke-width="0.25"/>
          <path id="Path_81" data-name="Path 81" d="M649.392,275.722c-.663,1.441-1.922,2.278-2.811,1.869s-1.073-1.909-.41-3.35,1.922-2.278,2.811-1.869S650.055,274.281,649.392,275.722Z" fill="#cdcdcc" stroke="#000" stroke-linecap="round" stroke-linejoin="round" stroke-width="0.25"/>
          <path id="Path_82" data-name="Path 82" d="M635,301.69v-3.707l8.218-4.65v3.674Z" fill="#86d3ed" stroke="#000" stroke-linecap="round" stroke-linejoin="round" stroke-width="0.25"/>
        </g>
        <g id="Group_37" data-name="Group 37">
          <circle id="Ellipse_13" data-name="Ellipse 13" cx="8.925" cy="8.925" r="8.925" transform="translate(633.423 264.604)" fill="#cfcfcf" stroke="#1a1818" stroke-linecap="round" stroke-linejoin="round" stroke-width="0.25"/>
          <path id="Path_83" data-name="Path 83" d="M642.349,226.252c-2.445,0-4.427.483-4.427,1.079v38.508c0,.7,1.073,2.206,4.427,2.206,3.07,0,4.426-1.5,4.426-2.206V227.331C646.775,226.735,644.793,226.252,642.349,226.252Z" fill="#c4c4c3" stroke="#1a1818" stroke-linecap="round" stroke-linejoin="round" stroke-width="0.25"/>
          <circle id="Ellipse_14" data-name="Ellipse 14" cx="8.925" cy="8.925" r="8.925" transform="translate(633.423 212.927)" fill="#cfcfcf" stroke="#1a1818" stroke-linecap="round" stroke-linejoin="round" stroke-width="0.25"/>
        </g>
        <g id="Group_38" data-name="Group 38">
          <circle id="Ellipse_15" data-name="Ellipse 15" cx="9.26" cy="9.26" r="9.26" transform="translate(673.619 266.333)" fill="#cfcfcf" stroke="#1a1818" stroke-linecap="round" stroke-linejoin="round" stroke-width="0.25"/>
          <path id="Path_84" data-name="Path 84" d="M611.64,315.612c-1.243-2.211-1.813-4.249-1.274-4.552l44.1-24.774,1-.56,12.216-6.862.844-.475,4.807-2.7c.637-.358,2.541-.151,4.245,2.883,1.561,2.777.89,4.768.254,5.125l-4.807,2.7-.845.474-12.216,6.862-1,.56-44.1,24.775C614.326,319.371,612.882,317.824,611.64,315.612Z" fill="#c4c4c3" stroke="#1a1818" stroke-linecap="round" stroke-linejoin="round" stroke-width="0.25"/>
          <circle id="Ellipse_16" data-name="Ellipse 16" cx="9.26" cy="9.26" r="9.26" transform="translate(598.528 308.516)" fill="#cfcfcf" stroke="#1a1818" stroke-linecap="round" stroke-linejoin="round" stroke-width="0.25"/>
        </g>
        <g id="Group_39" data-name="Group 39">
          <path id="Path_85" data-name="Path 85" d="M628.177,283.629c-.857-.331-2.089.79-2.751,2.505s-.5,3.373.354,3.7l18.383,7.1,2.4-6.208Z" fill="#cdcdcc" stroke="#000" stroke-linecap="round" stroke-linejoin="round" stroke-width="0.25"/>
          <path id="Path_86" data-name="Path 86" d="M629.382,291.228c-.858-.331-1.016-1.989-.354-3.7s1.893-2.836,2.751-2.5" fill="none" stroke="#000" stroke-linecap="round" stroke-linejoin="round" stroke-width="0.25"/>
        </g>
        <g id="Group_40" data-name="Group 40">
          <path id="Path_87" data-name="Path 87" d="M652.384,270.864a2.56,2.56,0,0,0-1.844-.046,7.279,7.279,0,0,1-.6,4.832,6.8,6.8,0,0,1-3.777,3.784,2.763,2.763,0,0,0,1.422,1.868c1.779.818,4.3-.855,5.621-3.737S654.162,271.682,652.384,270.864Z" fill="#1d604f" stroke="#1a1818" stroke-linecap="round" stroke-linejoin="round" stroke-width="0.25"/>
          <path id="Path_88" data-name="Path 88" d="M650.691,264.377c-5.444-1.055-8.785,4.436-8.785,4.436l-11.3,19.348a2.993,2.993,0,0,0-.408,1.507v24.043l3.266,1.614V291.3l13.683-21.937,8.238-2.425Z" fill="#28856d" stroke="#1a1818" stroke-linecap="round" stroke-linejoin="round" stroke-width="0.25"/>
          <path id="Path_89" data-name="Path 89" d="M665.216,273.97a2,2,0,0,0-.992-1.749l-9.031-5.4a6.134,6.134,0,0,0-6.461.03,12.9,12.9,0,0,0-3.56,3.633l-11.3,19.348a2.988,2.988,0,0,0-.408,1.507v24.043L665.369,297.4Zm-12.452,3.466c-1.378,2.749-3.7,4.375-5.18,3.631s-1.567-3.574-.188-6.323,3.7-4.375,5.18-3.632S654.143,274.687,652.764,277.436Z" fill="#2f7362" stroke="#1a1818" stroke-linecap="round" stroke-linejoin="round" stroke-width="0.25"/>
          <path id="Path_90" data-name="Path 90" d="M642.389,291.395c-.663,1.441-1.921,2.278-2.81,1.869s-1.073-1.909-.41-3.35,1.921-2.278,2.811-1.869S643.052,289.954,642.389,291.395Z" fill="#cdcdcc" stroke="#000" stroke-linecap="round" stroke-linejoin="round" stroke-width="0.25"/>
          <path id="Path_91" data-name="Path 91" d="M652.315,291.833c-.663,1.441-1.921,2.278-2.81,1.869s-1.073-1.909-.41-3.35,1.921-2.278,2.811-1.869S652.978,290.392,652.315,291.833Z" fill="#cdcdcc" stroke="#000" stroke-linecap="round" stroke-linejoin="round" stroke-width="0.25"/>
          <path id="Path_92" data-name="Path 92" d="M660.983,281.266c-.663,1.442-1.921,2.278-2.81,1.869s-1.073-1.909-.41-3.35,1.921-2.278,2.81-1.869S661.646,279.825,660.983,281.266Z" fill="#cdcdcc" stroke="#000" stroke-linecap="round" stroke-linejoin="round" stroke-width="0.25"/>
          <path id="Path_93" data-name="Path 93" d="M646.6,305.243v-3.707l8.218-4.65v3.674Z" fill="#c4c4c3" stroke="#1a1818" stroke-linecap="round" stroke-linejoin="round" stroke-width="0.25"/>
        </g>
      </g>
      <g id="Group_47" data-name="Group 47">
        <g id="Group_46" data-name="Group 46">
          <g id="Group_45" data-name="Group 45">
            <g id="Group_44" data-name="Group 44">
              <g id="Group_43" data-name="Group 43">
                <g id="Group_42" data-name="Group 42">
                  <path id="Path_94" data-name="Path 94" d="M680.276,304.4l3.551,1.2,2.517-30.641,8.289-6.18-5.467-.543c-4.322-.355-8.89,5.672-8.856,13.456Z" fill="#fa9f00" stroke="#1a1818" stroke-linecap="round" stroke-linejoin="round" stroke-width="0.25"/>
                </g>
              </g>
            </g>
            <path id="Path_95" data-name="Path 95" d="M695.114,268.984c-2.821-1.414-7.259.873-9.72,5.78a17.559,17.559,0,0,0-1.476,6.165l-.034,24.714,13.547-7.731s.028-23.743.028-23.876C697.461,271.848,696.669,269.764,695.114,268.984Zm-1.889,9.763c-1.319,2.629-3.536,4.184-4.954,3.473s-1.5-3.418-.18-6.047,3.536-4.184,4.954-3.473S694.543,276.118,693.225,278.747Z" fill="#ffb724" stroke="#1a1818" stroke-linecap="round" stroke-linejoin="round" stroke-width="0.25"/>
          </g>
          <path id="Path_96" data-name="Path 96" d="M686.818,300.418l-.066-3.544,7.774-4.592.065,3.513Z" fill="#c4c4c3" stroke="#1a1818" stroke-linecap="round" stroke-linejoin="round" stroke-width="0.25"/>
          <path id="Path_97" data-name="Path 97" d="M689.575,287.5c.563-1.123,1.511-1.787,2.116-1.484s.64,1.461.077,2.584-1.51,1.787-2.116,1.483S689.012,288.621,689.575,287.5Z" fill="#cdcdcc" stroke="#000" stroke-linecap="round" stroke-linejoin="round" stroke-width="0.25"/>
        </g>
        <path id="Path_98" data-name="Path 98" d="M693.031,272.7a2.074,2.074,0,0,0-1.788.075,7.57,7.57,0,0,1-.883,4.205,7.214,7.214,0,0,1-3.166,3.4,2.262,2.262,0,0,0,1.063,1.841c1.418.711,3.635-.844,4.954-3.472S694.448,273.41,693.031,272.7Z" fill="#fa9f00" stroke="#1a1818" stroke-linecap="round" stroke-linejoin="round" stroke-width="0.25"/>
      </g>
    </g>
    <g id="Group_96" data-name="Group 96">
      <path id="Path_99" data-name="Path 99" d="M570.584,213.661c.535.352.439,1.44-.213,2.431s-1.614,1.51-2.149,1.158-.439-1.44.214-2.431S570.05,213.309,570.584,213.661Z" fill="#6fb32f" stroke="#000" stroke-linecap="round" stroke-linejoin="round" stroke-width="0.25"/>
      <g id="Group_52" data-name="Group 52">
        <path id="Path_100" data-name="Path 100" d="M567.576,171.63a1.947,1.947,0,0,0-1.679.07,7.106,7.106,0,0,1-.829,3.95,6.778,6.778,0,0,1-2.974,3.192,2.121,2.121,0,0,0,1,1.73c1.332.668,3.415-.793,4.653-3.262S568.908,172.3,567.576,171.63Z" fill="#6fb32f" stroke="#000" stroke-linecap="round" stroke-linejoin="round" stroke-width="0.25"/>
        <path id="Path_101" data-name="Path 101" d="M585.975,160.956a1.949,1.949,0,0,0-1.68.07,7.112,7.112,0,0,1-.829,3.951,6.788,6.788,0,0,1-2.974,3.192,2.119,2.119,0,0,0,1,1.729c1.332.668,3.415-.792,4.653-3.262S587.306,161.624,585.975,160.956Z" fill="#6fb32f" stroke="#000" stroke-linecap="round" stroke-linejoin="round" stroke-width="0.25"/>
        <g id="Group_51" data-name="Group 51">
          <g id="Group_50" data-name="Group 50">
            <g id="Group_49" data-name="Group 49">
              <path id="Path_102" data-name="Path 102" d="M583.845,156.124c-2.114-1.048-6.245,1.524-8.3,2.675l-14.142,8.46c-3.23,2.037-5.126,4.495-5.644,7.6a10.932,10.932,0,0,0,.659,5.535c.924,1.591,5.938,3.037,5.938,3.037l-1.885-10.846,23.582-13.356c.61-.313,4.7-.321,4.107-.67Z" fill="#28856d" stroke="#1a1818" stroke-linecap="round" stroke-linejoin="round" stroke-width="0.25"/>
            </g>
          </g>
        </g>
        <path id="Path_103" data-name="Path 103" d="M575.046,169.071c.534.351.438,1.44-.214,2.431s-1.614,1.509-2.148,1.158-.439-1.441.213-2.432S574.511,168.719,575.046,169.071Z" fill="#6fb32f" stroke="#000" stroke-linecap="round" stroke-linejoin="round" stroke-width="0.25"/>
        <path id="Path_104" data-name="Path 104" d="M580.94,159.381l-4.857,2.811s-13.017,7.746-14.088,8.7c-5.16,4.585-2.793,10.372-1.7,11.45a4.679,4.679,0,0,0,5.322.694l13.98-8.1c2.058-1.193,1.4-.816,5.035-2.917a11.028,11.028,0,0,0,4.788-10.306C589.15,158.533,587.111,155.816,580.94,159.381Zm-13.287,17.808c-1.238,2.469-3.321,3.93-4.653,3.262s-1.407-3.211-.169-5.681,3.322-3.93,4.653-3.262S568.892,174.719,567.653,177.189Zm18.433-10.744c-1.238,2.469-3.321,3.93-4.653,3.262s-1.407-3.211-.169-5.681,3.322-3.93,4.654-3.262S587.325,163.975,586.086,166.445Z" fill="#2f7362" stroke="#1a1818" stroke-linecap="round" stroke-linejoin="round" stroke-width="0.25"/>
        <path id="Path_105" data-name="Path 105" d="M575.446,171.161c-.53,1.055-1.42,1.679-1.989,1.394s-.6-1.372-.072-2.427,1.42-1.679,1.988-1.394S575.975,170.106,575.446,171.161Z" fill="#cdcdcc" stroke="#000" stroke-linecap="round" stroke-linejoin="round" stroke-width="0.25"/>
      </g>
      <g id="Group_68" data-name="Group 68">
        <g id="Group_54" data-name="Group 54">
          <path id="Path_106" data-name="Path 106" d="M651.236,119.088l-2-4.631s-2.5-2.283-4.883-1.158l-23.167,13.437a8.529,8.529,0,0,0-3.177,3.737l-7.413,17.739s-1.655,4.4.265,5.957a13.717,13.717,0,0,0,3.64,1.823l-.066-7.016,9.531-17.607Z" fill="#fba914" stroke="#1a1818" stroke-linecap="round" stroke-linejoin="round" stroke-width="0.25"/>
          <path id="Path_107" data-name="Path 107" d="M651.092,129.944a6.107,6.107,0,0,1-3.224,3.3,2.221,2.221,0,0,0,1.048,1.116c1.568.721,3.787-.754,4.956-3.295s.845-5.186-.723-5.907a2.3,2.3,0,0,0-1.732-.01A5.913,5.913,0,0,1,651.092,129.944Z" fill="#e96896" stroke="#000" stroke-linecap="round" stroke-linejoin="round" stroke-width="0.25"/>
          <path id="Path_108" data-name="Path 108" d="M635.156,151.49a6.105,6.105,0,0,1-3.224,3.3,2.227,2.227,0,0,0,1.049,1.116c1.568.721,3.786-.754,4.955-3.295s.845-5.186-.723-5.907a2.3,2.3,0,0,0-1.731-.009A5.918,5.918,0,0,1,635.156,151.49Z" fill="#e96896" stroke="#000" stroke-linecap="round" stroke-linejoin="round" stroke-width="0.25"/>
          <path id="Path_109" data-name="Path 109" d="M618.972,148.461a6.1,6.1,0,0,1-3.223,3.305,2.221,2.221,0,0,0,1.048,1.116c1.568.721,3.787-.754,4.955-3.295s.846-5.186-.722-5.907a2.3,2.3,0,0,0-1.732-.01A5.909,5.909,0,0,1,618.972,148.461Z" fill="#e96896" stroke="#000" stroke-linecap="round" stroke-linejoin="round" stroke-width="0.25"/>
          <g id="Group_53" data-name="Group 53">
            <path id="Path_110" data-name="Path 110" d="M657.458,124.882c-.886-2.4-7.215-9.531-7.215-9.531s-1.059-1.655-2.449-.794l-24.093,13.9a7.884,7.884,0,0,0-3.045,3.044l-7.414,17.739s-2,5.138,1.258,6.752l17.276,3.64s3.045,1.258,7.546-4.633l16.545-22.59S658.583,127.927,657.458,124.882Zm-35.552,24.672c-1.169,2.541-3.387,4.016-4.955,3.295s-1.892-3.366-.723-5.907,3.388-4.017,4.956-3.295S623.075,147.013,621.906,149.554Zm15.947,3.193c-1.169,2.541-3.388,4.016-4.956,3.3s-1.891-3.366-.722-5.907,3.387-4.016,4.955-3.295S639.022,150.206,637.853,152.747Zm15.957-21.594c-1.169,2.541-3.387,4.016-4.955,3.295s-1.892-3.366-.723-5.907,3.388-4.017,4.956-3.295S654.979,128.612,653.81,131.153Z" fill="#ffb724" stroke="#1a1818" stroke-linecap="round" stroke-linejoin="round" stroke-width="0.25"/>
            <ellipse id="Ellipse_17" data-name="Ellipse 17" cx="2.394" cy="1.456" rx="2.394" ry="1.456" transform="translate(641.174 143.297) rotate(-63.744)" fill="#e96896" stroke="#000" stroke-linecap="round" stroke-linejoin="round" stroke-width="0.25"/>
            <ellipse id="Ellipse_18" data-name="Ellipse 18" cx="2.394" cy="1.456" rx="2.394" ry="1.456" transform="translate(632.789 141.794) rotate(-63.744)" fill="#e96896" stroke="#000" stroke-linecap="round" stroke-linejoin="round" stroke-width="0.25"/>
            <ellipse id="Ellipse_19" data-name="Ellipse 19" cx="2.394" cy="1.456" rx="2.394" ry="1.456" transform="translate(624.293 152.781) rotate(-63.744)" fill="#e96896" stroke="#000" stroke-linecap="round" stroke-linejoin="round" stroke-width="0.25"/>
            <ellipse id="Ellipse_20" data-name="Ellipse 20" cx="2.394" cy="1.456" rx="2.394" ry="1.456" transform="translate(621.762 135.983) rotate(-63.744)" fill="#e96896" stroke="#000" stroke-linecap="round" stroke-linejoin="round" stroke-width="0.25"/>
            <ellipse id="Ellipse_21" data-name="Ellipse 21" cx="2.394" cy="1.456" rx="2.394" ry="1.456" transform="translate(643.623 123.475) rotate(-63.744)" fill="#e96896" stroke="#000" stroke-linecap="round" stroke-linejoin="round" stroke-width="0.25"/>
            <path id="Path_111" data-name="Path 111" d="M638.924,122.433l-7.678,4.633-.132,4.17,7.877-4.633Z" fill="#e96896" stroke="#000" stroke-linecap="round" stroke-linejoin="round" stroke-width="0.25"/>
          </g>
        </g>
        <g id="Group_55" data-name="Group 55">
          <path id="Path_112" data-name="Path 112" d="M646.731,119.323c-.794-.306-1.936.733-2.549,2.322s-.467,3.127.328,3.433l11.472,4.429,7.788-3.606Z" fill="#cdcdcc" stroke="#000" stroke-linecap="round" stroke-linejoin="round" stroke-width="0.25"/>
          <path id="Path_113" data-name="Path 113" d="M647.848,126.367c-.8-.307-.942-1.844-.328-3.433s1.755-2.629,2.549-2.322" fill="none" stroke="#000" stroke-linecap="round" stroke-linejoin="round" stroke-width="0.25"/>
        </g>
        <g id="Group_56" data-name="Group 56">
          <circle id="Ellipse_22" data-name="Ellipse 22" cx="8.593" cy="8.593" r="8.593" transform="translate(615.473 141.212)" fill="#cfcfcf" stroke="#1a1818" stroke-linecap="round" stroke-linejoin="round" stroke-width="0.25"/>
          <path id="Path_114" data-name="Path 114" d="M586.1,173.492l1.821-.908,32.653-16.276a4.163,4.163,0,0,0,1.745-5.632,4.374,4.374,0,0,0-5.548-2l-32.653,16.276-1.821.908Z" fill="#c4c4c3" stroke="#1a1818" stroke-linecap="round" stroke-linejoin="round" stroke-width="0.25"/>
          <circle id="Ellipse_23" data-name="Ellipse 23" cx="8.593" cy="8.593" r="8.593" transform="translate(578.11 159.835)" fill="#cfcfcf" stroke="#1a1818" stroke-linecap="round" stroke-linejoin="round" stroke-width="0.25"/>
        </g>
        <g id="Group_57" data-name="Group 57">
          <circle id="Ellipse_24" data-name="Ellipse 24" cx="8.593" cy="8.593" r="8.593" transform="translate(687.622 104.528)" fill="#cfcfcf" stroke="#1a1818" stroke-linecap="round" stroke-linejoin="round" stroke-width="0.25"/>
          <path id="Path_115" data-name="Path 115" d="M658.248,136.808l1.821-.907,32.653-16.276a4.163,4.163,0,0,0,1.745-5.632,4.373,4.373,0,0,0-5.548-2l-32.653,16.276-1.821.907Z" fill="#c4c4c3" stroke="#1a1818" stroke-linecap="round" stroke-linejoin="round" stroke-width="0.25"/>
          <circle id="Ellipse_25" data-name="Ellipse 25" cx="8.593" cy="8.593" r="8.593" transform="translate(650.259 123.152)" fill="#cfcfcf" stroke="#1a1818" stroke-linecap="round" stroke-linejoin="round" stroke-width="0.25"/>
        </g>
        <g id="Group_59" data-name="Group 59">
          <path id="Path_116" data-name="Path 116" d="M639.5,67.454l-3.537-1.414-13.045,7.444V94.007c.151,3.392.173,6.282,1.562,7.158a17.893,17.893,0,0,0,4.461,1.694l-.319-29.2Z" fill="#28856d" stroke="#1a1818" stroke-linecap="round" stroke-linejoin="round" stroke-width="0.25"/>
          <line id="Line_4" data-name="Line 4" x2="3.362" y2="1.414" transform="translate(622.914 73.484)" fill="#ef8b20" stroke="#000" stroke-linecap="round" stroke-linejoin="round" stroke-width="0.25"/>
          <g id="Group_58" data-name="Group 58">
            <path id="Path_117" data-name="Path 117" d="M639.5,67.454,626.451,74.9s-.027,20.73-.027,20.858c0,3.815.761,6.246,2.258,7,2.717,1.362,6.84-1.364,9.21-6.09a14.758,14.758,0,0,0,1.571-5.412Z" fill="#2f7362" stroke="#1a1818" stroke-linecap="round" stroke-linejoin="round" stroke-width="0.25"/>
          </g>
          <path id="Path_118" data-name="Path 118" d="M636.671,72.484l.063,3.413-7.486,4.421-.063-3.383Z" fill="#1d604f" stroke="#1a1818" stroke-linecap="round" stroke-linejoin="round" stroke-width="0.25"/>
          <path id="Path_119" data-name="Path 119" d="M634.617,84.673c-.542,1.081-1.455,1.721-2.038,1.428s-.616-1.406-.074-2.487,1.455-1.721,2.038-1.429S635.159,83.591,634.617,84.673Z" fill="#cdcdcc" stroke="#000" stroke-linecap="round" stroke-linejoin="round" stroke-width="0.25"/>
        </g>
        <g id="Group_61" data-name="Group 61">
          <g id="Group_60" data-name="Group 60">
            <path id="Path_120" data-name="Path 120" d="M651.477,124.217l-24.608,1.742.05,4.2,9.8,3.767,2.224-1.737,4.533.643,8.076-4.912Z" fill="#c4c4c3" stroke="#1a1818" stroke-linecap="round" stroke-linejoin="round" stroke-width="0.25"/>
            <path id="Path_121" data-name="Path 121" d="M649.878,122.666l-10.406-4L626.884,126l9.8,3.767,2.224-1.737,4.533.643,8.076-4.912Z" fill="#cfcfcf" stroke="#1a1818" stroke-linecap="round" stroke-linejoin="round" stroke-width="0.25"/>
          </g>
          <path id="Path_122" data-name="Path 122" d="M635.142,99.606V123c0,.789,1.82,1.429,4.065,1.429s4.065-.64,4.065-1.429v-23.4Z" fill="#c4c4c3" stroke="#1a1818" stroke-linecap="round" stroke-linejoin="round" stroke-width="0.25"/>
          <circle id="Ellipse_26" data-name="Ellipse 26" cx="8.722" cy="8.722" r="8.722" transform="translate(630.485 88.263)" fill="#cfcfcf" stroke="#1a1818" stroke-linecap="round" stroke-linejoin="round" stroke-width="0.25"/>
        </g>
        <g id="Group_62" data-name="Group 62">
          <path id="Path_123" data-name="Path 123" d="M634,82.418c-.8-.282-1.912.793-2.476,2.4s-.369,3.139.435,3.421L649.2,94.282l2.041-5.821Z" fill="#cdcdcc" stroke="#000" stroke-linecap="round" stroke-linejoin="round" stroke-width="0.25"/>
          <path id="Path_124" data-name="Path 124" d="M635.337,89.423c-.8-.282-1-1.814-.435-3.421s1.672-2.682,2.476-2.4" fill="none" stroke="#000" stroke-linecap="round" stroke-linejoin="round" stroke-width="0.25"/>
        </g>
        <g id="Group_64" data-name="Group 64">
          <path id="Path_125" data-name="Path 125" d="M653.64,73.032,650.1,71.618l-13.044,7.444V99.585c.15,3.393.173,6.283,1.561,7.158a17.885,17.885,0,0,0,4.461,1.7l-.319-29.2Z" fill="#28856d" stroke="#1a1818" stroke-linecap="round" stroke-linejoin="round" stroke-width="0.25"/>
          <line id="Line_5" data-name="Line 5" x2="3.362" y2="1.414" transform="translate(637.059 79.062)" fill="#ef8b20" stroke="#000" stroke-linecap="round" stroke-linejoin="round" stroke-width="0.25"/>
          <g id="Group_63" data-name="Group 63">
            <path id="Path_126" data-name="Path 126" d="M653.64,73.032l-13.045,7.445s-.027,20.729-.027,20.857c0,3.816.761,6.247,2.258,7,2.717,1.363,6.841-1.364,9.21-6.089a14.784,14.784,0,0,0,1.572-5.412Zm-4.051,28.377c-1.27,2.532-3.4,4.029-4.77,3.344s-1.443-3.291-.173-5.822,3.405-4.029,4.77-3.344S650.858,98.878,649.589,101.409Z" fill="#2f7362" stroke="#1a1818" stroke-linecap="round" stroke-linejoin="round" stroke-width="0.25"/>
            <path id="Path_127" data-name="Path 127" d="M649.376,95.585a2,2,0,0,0-1.722.072,7.284,7.284,0,0,1-.85,4.05,6.954,6.954,0,0,1-3.048,3.272,2.175,2.175,0,0,0,1.023,1.773c1.365.684,3.5-.813,4.77-3.344S650.741,96.27,649.376,95.585Z" fill="#1d604f" stroke="#1a1818" stroke-linecap="round" stroke-linejoin="round" stroke-width="0.25"/>
          </g>
          <path id="Path_128" data-name="Path 128" d="M650.815,78.063l.063,3.413L643.392,85.9l-.063-3.383Z" fill="#1d604f" stroke="#1a1818" stroke-linecap="round" stroke-linejoin="round" stroke-width="0.25"/>
          <path id="Path_129" data-name="Path 129" d="M648.761,90.251c-.542,1.082-1.454,1.721-2.038,1.429s-.616-1.406-.074-2.488,1.455-1.721,2.038-1.429S649.3,89.17,648.761,90.251Z" fill="#cdcdcc" stroke="#000" stroke-linecap="round" stroke-linejoin="round" stroke-width="0.25"/>
        </g>
        <g id="Group_65" data-name="Group 65">
          <path id="Path_130" data-name="Path 130" d="M625.013,131.4c-.795-.307-1.936.733-2.55,2.322s-.467,3.126.328,3.433l17.039,6.578,2.221-5.755Z" fill="#cdcdcc" stroke="#000" stroke-linecap="round" stroke-linejoin="round" stroke-width="0.25"/>
          <path id="Path_131" data-name="Path 131" d="M626.129,138.448c-.794-.307-.941-1.844-.328-3.433s1.755-2.629,2.55-2.322" fill="none" stroke="#000" stroke-linecap="round" stroke-linejoin="round" stroke-width="0.25"/>
        </g>
        <g id="Group_66" data-name="Group 66">
          <circle id="Ellipse_27" data-name="Ellipse 27" cx="8.272" cy="8.272" r="8.272" transform="translate(633.826 191.245)" fill="#cfcfcf" stroke="#1a1818" stroke-linecap="round" stroke-linejoin="round" stroke-width="0.25"/>
          <path id="Path_132" data-name="Path 132" d="M642.1,155.7c-2.266,0-4.1.448-4.1,1V192.39c0,.652.994,2.045,4.1,2.045,2.845,0,4.1-1.393,4.1-2.045V156.7C646.2,156.147,644.365,155.7,642.1,155.7Z" fill="#c4c4c3" stroke="#1a1818" stroke-linecap="round" stroke-linejoin="round" stroke-width="0.25"/>
          <circle id="Ellipse_28" data-name="Ellipse 28" cx="8.272" cy="8.272" r="8.272" transform="translate(633.826 143.348)" fill="#cfcfcf" stroke="#1a1818" stroke-linecap="round" stroke-linejoin="round" stroke-width="0.25"/>
        </g>
        <g id="Group_67" data-name="Group 67">
          <path id="Path_133" data-name="Path 133" d="M662.722,123.512l-2-4.632s-2.5-2.283-4.883-1.158l-23.167,13.437a8.529,8.529,0,0,0-3.177,3.737l-7.413,17.74s-1.655,4.4.265,5.957a13.7,13.7,0,0,0,3.64,1.822l-.066-7.016,9.531-17.606Z" fill="#fba914" stroke="#1a1818" stroke-linecap="round" stroke-linejoin="round" stroke-width="0.25"/>
          <path id="Path_134" data-name="Path 134" d="M662.578,134.368a6.1,6.1,0,0,1-3.224,3.3,2.221,2.221,0,0,0,1.048,1.116c1.568.722,3.787-.754,4.956-3.295s.845-5.185-.723-5.907a2.3,2.3,0,0,0-1.732-.009A5.913,5.913,0,0,1,662.578,134.368Z" fill="#fba914" stroke="#1a1818" stroke-linecap="round" stroke-linejoin="round" stroke-width="0.25"/>
          <path id="Path_135" data-name="Path 135" d="M646.642,155.913a6.1,6.1,0,0,1-3.223,3.3,2.217,2.217,0,0,0,1.048,1.116c1.568.722,3.786-.754,4.955-3.295s.846-5.185-.722-5.907a2.3,2.3,0,0,0-1.732-.009A5.918,5.918,0,0,1,646.642,155.913Z" fill="#fba914" stroke="#1a1818" stroke-linecap="round" stroke-linejoin="round" stroke-width="0.25"/>
          <path id="Path_136" data-name="Path 136" d="M630.459,152.885a6.1,6.1,0,0,1-3.224,3.3,2.225,2.225,0,0,0,1.048,1.116c1.568.721,3.787-.754,4.956-3.295s.845-5.186-.723-5.907a2.3,2.3,0,0,0-1.732-.009A5.913,5.913,0,0,1,630.459,152.885Z" fill="#fba914" stroke="#1a1818" stroke-linecap="round" stroke-linejoin="round" stroke-width="0.25"/>
          <path id="Path_137" data-name="Path 137" d="M668.944,129.306c-.886-2.4-7.215-9.532-7.215-9.532s-1.059-1.654-2.449-.794l-24.093,13.9a7.889,7.889,0,0,0-3.045,3.045l-7.413,17.739s-2,5.138,1.257,6.751l17.276,3.641s3.045,1.258,7.546-4.633l16.545-22.591S670.069,132.351,668.944,129.306Zm-35.552,24.671c-1.168,2.541-3.387,4.016-4.955,3.295s-1.892-3.366-.723-5.907,3.388-4.016,4.956-3.295S634.561,151.436,633.392,153.977Zm15.947,3.193c-1.169,2.541-3.388,4.017-4.956,3.295s-1.891-3.366-.722-5.907,3.387-4.016,4.955-3.295S650.508,154.629,649.339,157.17ZM665.3,135.576c-1.169,2.541-3.387,4.016-4.955,3.295s-1.892-3.366-.723-5.907,3.388-4.016,4.956-3.295S666.465,133.035,665.3,135.576Z" fill="#ffb724" stroke="#1a1818" stroke-linecap="round" stroke-linejoin="round" stroke-width="0.25"/>
          <ellipse id="Ellipse_29" data-name="Ellipse 29" cx="2.394" cy="1.456" rx="2.394" ry="1.456" transform="translate(652.66 147.72) rotate(-63.744)" fill="#cdcdcc" stroke="#000" stroke-linecap="round" stroke-linejoin="round" stroke-width="0.25"/>
          <ellipse id="Ellipse_30" data-name="Ellipse 30" cx="2.394" cy="1.456" rx="2.394" ry="1.456" transform="translate(644.275 146.218) rotate(-63.744)" fill="#cdcdcc" stroke="#000" stroke-linecap="round" stroke-linejoin="round" stroke-width="0.25"/>
          <ellipse id="Ellipse_31" data-name="Ellipse 31" cx="2.394" cy="1.456" rx="2.394" ry="1.456" transform="translate(635.779 157.204) rotate(-63.744)" fill="#cdcdcc" stroke="#000" stroke-linecap="round" stroke-linejoin="round" stroke-width="0.25"/>
          <ellipse id="Ellipse_32" data-name="Ellipse 32" cx="2.394" cy="1.456" rx="2.394" ry="1.456" transform="translate(633.248 140.407) rotate(-63.744)" fill="#cdcdcc" stroke="#000" stroke-linecap="round" stroke-linejoin="round" stroke-width="0.25"/>
          <ellipse id="Ellipse_33" data-name="Ellipse 33" cx="2.394" cy="1.456" rx="2.394" ry="1.456" transform="translate(655.109 127.899) rotate(-63.744)" fill="#cdcdcc" stroke="#000" stroke-linecap="round" stroke-linejoin="round" stroke-width="0.25"/>
          <path id="Path_138" data-name="Path 138" d="M650.411,126.857l-7.678,4.633-.132,4.17,7.877-4.633Z" fill="#c4c4c3" stroke="#1a1818" stroke-linecap="round" stroke-linejoin="round" stroke-width="0.25"/>
        </g>
      </g>
      <g id="Group_69" data-name="Group 69">
        <path id="Path_139" data-name="Path 139" d="M576.545,166.879c-.7-.441-1.99.343-2.872,1.751s-1.027,2.907-.323,3.348l15.1,9.462,3.2-5.1Z" fill="#cdcdcc" stroke="#000" stroke-linecap="round" stroke-linejoin="round" stroke-width="0.25"/>
        <path id="Path_140" data-name="Path 140" d="M576.308,173.832c-.7-.441-.56-1.94.323-3.349s2.168-2.192,2.872-1.75" fill="none" stroke="#000" stroke-linecap="round" stroke-linejoin="round" stroke-width="0.25"/>
      </g>
      <g id="Group_91" data-name="Group 91">
        <g id="Group_71" data-name="Group 71">
          <path id="Path_141" data-name="Path 141" d="M569.265,235.446l-3.425-1.37-12.635,7.21v19.877c.146,3.286.168,6.085,1.513,6.933a17.3,17.3,0,0,0,4.32,1.641l-.308-28.279Z" fill="#ffb724" stroke="#1a1818" stroke-linecap="round" stroke-linejoin="round" stroke-width="0.25"/>
          <line id="Line_6" data-name="Line 6" x2="3.256" y2="1.37" transform="translate(553.205 241.286)" fill="#ffb724" stroke="#1a1818" stroke-linecap="round" stroke-linejoin="round" stroke-width="0.25"/>
          <g id="Group_70" data-name="Group 70">
            <path id="Path_142" data-name="Path 142" d="M569.265,235.446l-12.634,7.21s-.026,20.077-.026,20.2c0,3.7.737,6.05,2.187,6.777,2.631,1.32,6.625-1.321,8.92-5.9a14.313,14.313,0,0,0,1.522-5.242Zm-3.923,27.484c-1.23,2.452-3.3,3.9-4.62,3.239s-1.4-3.188-.168-5.64,3.3-3.9,4.62-3.239S566.571,260.478,565.342,262.93Z" fill="#ffb724" stroke="#1a1818" stroke-linecap="round" stroke-linejoin="round" stroke-width="0.25"/>
            <path id="Path_143" data-name="Path 143" d="M565.135,257.289a1.938,1.938,0,0,0-1.667.07,7.059,7.059,0,0,1-.824,3.922,6.729,6.729,0,0,1-2.952,3.169,2.105,2.105,0,0,0,.991,1.717c1.322.663,3.39-.787,4.62-3.238S566.457,257.952,565.135,257.289Z" fill="#ffb724" stroke="#1a1818" stroke-linecap="round" stroke-linejoin="round" stroke-width="0.25"/>
          </g>
          <path id="Path_144" data-name="Path 144" d="M566.529,240.318l.061,3.306-7.251,4.282-.061-3.276Z" fill="#ffb724" stroke="#1a1818" stroke-linecap="round" stroke-linejoin="round" stroke-width="0.25"/>
          <path id="Path_145" data-name="Path 145" d="M564.54,252.123c-.525,1.047-1.409,1.667-1.974,1.383s-.6-1.362-.071-2.409,1.409-1.667,1.973-1.384S565.065,251.075,564.54,252.123Z" fill="#ffb724" stroke="#1a1818" stroke-linecap="round" stroke-linejoin="round" stroke-width="0.25"/>
        </g>
        <g id="Group_77" data-name="Group 77">
          <g id="Group_74" data-name="Group 74">
            <g id="Group_73" data-name="Group 73">
              <g id="Group_72" data-name="Group 72">
                <path id="Path_146" data-name="Path 146" d="M559.731,337.93l-1.07-29.623,7.4-7.481-4.477-.7c-3.246,0-7.808,4.113-7.909,13.2L553.645,333C553.444,336.045,559.731,337.93,559.731,337.93Z" fill="#28856d" stroke="#1a1818" stroke-linecap="round" stroke-linejoin="round" stroke-width="0.25"/>
              </g>
            </g>
          </g>
          <g id="Group_76" data-name="Group 76">
            <g id="Group_75" data-name="Group 75">
              <path id="Path_147" data-name="Path 147" d="M562.9,337.688c4.966-2.337,7.018-7.642,7.019-9.921,0-4.166,0-3.415.006-5.776.008-6.59.019-15.96.019-16.041,0-2.052-.74-4.005-2.2-4.736-2.645-1.327-6.806.818-9.113,5.419a16.475,16.475,0,0,0-1.384,5.779l-.022,12.889,0,5.571C557.226,337.947,560.037,339.037,562.9,337.688Zm-1.738-29.735c1.236-2.464,3.315-3.922,4.644-3.256s1.4,3.205.169,5.67-3.316,3.922-4.645,3.255S559.928,310.418,561.164,307.953Zm.016,20.063c1.236-2.465,3.315-3.922,4.644-3.256s1.4,3.2.168,5.669-3.315,3.922-4.644,3.256S559.944,330.48,561.18,328.016Z" fill="#1d604f" stroke="#1a1818" stroke-linecap="round" stroke-linejoin="round" stroke-width="0.25"/>
            </g>
            <path id="Path_148" data-name="Path 148" d="M562.555,318.571c.528-1.053,1.416-1.676,1.984-1.391s.6,1.369.072,2.422-1.416,1.675-1.984,1.391S562.027,319.624,562.555,318.571Z" fill="#1d604f" stroke="#1a1818" stroke-linecap="round" stroke-linejoin="round" stroke-width="0.25"/>
          </g>
          <path id="Path_149" data-name="Path 149" d="M565.795,304.7a1.947,1.947,0,0,0-1.676.07,7.1,7.1,0,0,1-.828,3.943,6.772,6.772,0,0,1-2.968,3.186,2.119,2.119,0,0,0,1,1.726c1.329.666,3.408-.791,4.644-3.256S567.124,305.363,565.795,304.7Z" fill="#1d604f" stroke="#1a1818" stroke-linecap="round" stroke-linejoin="round" stroke-width="0.25"/>
          <path id="Path_150" data-name="Path 150" d="M565.795,324.759a1.947,1.947,0,0,0-1.676.07,7.1,7.1,0,0,1-.828,3.943,6.764,6.764,0,0,1-2.968,3.185,2.122,2.122,0,0,0,1,1.727c1.329.666,3.408-.792,4.644-3.256S567.124,325.425,565.795,324.759Z" fill="#1d604f" stroke="#1a1818" stroke-linecap="round" stroke-linejoin="round" stroke-width="0.25"/>
        </g>
        <g id="Group_78" data-name="Group 78">
          <path id="Path_151" data-name="Path 151" d="M563.509,315.634c-.778-.273-1.852.768-2.4,2.325s-.357,3.04.421,3.313l16.694,5.853,1.976-5.638Z" fill="#cdcdcc" stroke="#000" stroke-linecap="round" stroke-linejoin="round" stroke-width="0.25"/>
          <path id="Path_152" data-name="Path 152" d="M564.8,322.419c-.779-.273-.967-1.756-.421-3.313s1.619-2.6,2.4-2.325" fill="none" stroke="#000" stroke-linecap="round" stroke-linejoin="round" stroke-width="0.25"/>
        </g>
        <g id="Group_79" data-name="Group 79">
          <path id="Path_153" data-name="Path 153" d="M563.509,249.066c-.778-.273-1.852.768-2.4,2.325s-.357,3.04.421,3.313l16.694,5.853,1.976-5.638Z" fill="#cdcdcc" stroke="#000" stroke-linecap="round" stroke-linejoin="round" stroke-width="0.25"/>
          <path id="Path_154" data-name="Path 154" d="M564.8,255.851c-.779-.273-.967-1.756-.421-3.313s1.619-2.6,2.4-2.325" fill="none" stroke="#000" stroke-linecap="round" stroke-linejoin="round" stroke-width="0.25"/>
        </g>
        <g id="Group_81" data-name="Group 81">
          <g id="Group_80" data-name="Group 80">
            <path id="Path_155" data-name="Path 155" d="M580.591,243.364l-23.834,1.687.048,4.067,9.487,3.649,2.154-1.683,4.39.623,7.821-4.757Z" fill="#c4c4c3" stroke="#1a1818" stroke-linecap="round" stroke-linejoin="round" stroke-width="0.25"/>
            <path id="Path_156" data-name="Path 156" d="M579.042,241.862l-10.079-3.871-12.192,7.1,9.487,3.649,2.154-1.683,4.39.623,7.821-4.757Z" fill="#cfcfcf" stroke="#1a1818" stroke-linecap="round" stroke-linejoin="round" stroke-width="0.25"/>
          </g>
          <path id="Path_157" data-name="Path 157" d="M568.707,180.331c-2.194,0-3.974.433-3.974.968v63.286c0,.632.964,1.981,3.974,1.981,2.756,0,3.974-1.349,3.974-1.981V181.3C572.681,180.764,570.9,180.331,568.707,180.331Z" fill="#c4c4c3" stroke="#1a1818" stroke-linecap="round" stroke-linejoin="round" stroke-width="0.25"/>
          <circle id="Ellipse_34" data-name="Ellipse 34" cx="8.012" cy="8.012" r="8.012" transform="translate(560.695 170.578)" fill="#cfcfcf" stroke="#1a1818" stroke-linecap="round" stroke-linejoin="round" stroke-width="0.25"/>
        </g>
        <g id="Group_82" data-name="Group 82">
          <circle id="Ellipse_35" data-name="Ellipse 35" cx="7.973" cy="7.973" r="7.973" transform="translate(560.415 321.633)" fill="#cfcfcf" stroke="#1a1818" stroke-linecap="round" stroke-linejoin="round" stroke-width="0.25"/>
          <path id="Path_158" data-name="Path 158" d="M563.6,329.607l.862.616V333.4l-4.822-.382v-2.8Z" fill="#c1c1c0" stroke="#1a1818" stroke-linecap="round" stroke-linejoin="round" stroke-width="0.25"/>
          <path id="Path_159" data-name="Path 159" d="M544.048,331.351h-2.312v4.1s-.123,1,1.854,2.126l6.648,3.63s3.519,1.826,6.7.66l9.271-3.851v-3.627l-9.951,1.678Z" fill="#c1c1c0" stroke="#1a1818" stroke-linecap="round" stroke-linejoin="round" stroke-width="0.25"/>
          <path id="Path_160" data-name="Path 160" d="M542.944,330.626l9.619-3.482,5.829,2.8,3.811-1.34,2.261,1.615-3.307,1.3,5.051,2.872-9.6,4.01c-2.28.953-3.841.422-5.993-.793l-7.871-4.591C541.326,332.218,541.413,331.18,542.944,330.626Z" fill="#cfcfcf" stroke="#1a1818" stroke-linecap="round" stroke-linejoin="round" stroke-width="0.25"/>
          <ellipse id="Ellipse_36" data-name="Ellipse 36" cx="2.667" cy="1.162" rx="2.667" ry="1.162" transform="translate(550.409 332.069)" fill="#c1c1c0" stroke="#1a1818" stroke-linecap="round" stroke-linejoin="round" stroke-width="0.25"/>
        </g>
        <g id="Group_83" data-name="Group 83">
          <circle id="Ellipse_37" data-name="Ellipse 37" cx="8.012" cy="8.012" r="8.012" transform="translate(559.728 302.066)" fill="#cfcfcf" stroke="#1a1818" stroke-linecap="round" stroke-linejoin="round" stroke-width="0.25"/>
          <path id="Path_161" data-name="Path 161" d="M567.74,267.639c-2.194,0-3.974.433-3.974.968v34.568c0,.632.963,1.981,3.974,1.981,2.756,0,3.974-1.349,3.974-1.981V268.607C571.714,268.072,569.935,267.639,567.74,267.639Z" fill="#c4c4c3" stroke="#1a1818" stroke-linecap="round" stroke-linejoin="round" stroke-width="0.25"/>
          <circle id="Ellipse_38" data-name="Ellipse 38" cx="8.012" cy="8.012" r="8.012" transform="translate(559.728 255.676)" fill="#cfcfcf" stroke="#1a1818" stroke-linecap="round" stroke-linejoin="round" stroke-width="0.25"/>
        </g>
        <g id="Group_85" data-name="Group 85">
          <path id="Path_162" data-name="Path 162" d="M582.086,238.9l-3.425-1.369-12.635,7.21v19.877c.146,3.286.168,6.085,1.513,6.933a17.3,17.3,0,0,0,4.32,1.641l-.308-28.279Z" fill="#ffb724" stroke="#1a1818" stroke-linecap="round" stroke-linejoin="round" stroke-width="0.25"/>
          <line id="Line_7" data-name="Line 7" x2="3.256" y2="1.37" transform="translate(566.026 244.737)" fill="#ffb724" stroke="#1a1818" stroke-linecap="round" stroke-linejoin="round" stroke-width="0.25"/>
          <g id="Group_84" data-name="Group 84">
            <path id="Path_163" data-name="Path 163" d="M582.086,238.9l-12.634,7.211s-.026,20.077-.026,20.2c0,3.695.737,6.05,2.187,6.777,2.631,1.32,6.625-1.321,8.92-5.9a14.313,14.313,0,0,0,1.522-5.242Zm-3.924,27.485c-1.229,2.451-3.3,3.9-4.619,3.239s-1.4-3.188-.168-5.64,3.3-3.9,4.62-3.239S579.392,263.929,578.162,266.381Z" fill="#ffb724" stroke="#1a1818" stroke-linecap="round" stroke-linejoin="round" stroke-width="0.25"/>
            <path id="Path_164" data-name="Path 164" d="M577.956,260.74a1.934,1.934,0,0,0-1.667.07,7.059,7.059,0,0,1-.824,3.922,6.729,6.729,0,0,1-2.952,3.169,2.107,2.107,0,0,0,.991,1.717c1.322.663,3.39-.787,4.62-3.238S579.278,261.4,577.956,260.74Z" fill="#fa9f00" stroke="#1a1818" stroke-linecap="round" stroke-linejoin="round" stroke-width="0.25"/>
          </g>
          <path id="Path_165" data-name="Path 165" d="M579.35,243.769l.061,3.306-7.251,4.282-.061-3.276Z" fill="#c4c4c3" stroke="#1a1818" stroke-linecap="round" stroke-linejoin="round" stroke-width="0.25"/>
          <path id="Path_166" data-name="Path 166" d="M577.361,255.574c-.525,1.047-1.409,1.667-1.974,1.383s-.6-1.362-.071-2.409,1.408-1.667,1.973-1.384S577.886,254.526,577.361,255.574Z" fill="#cfcfcf" stroke="#1a1818" stroke-linecap="round" stroke-linejoin="round" stroke-width="0.25"/>
        </g>
        <g id="Group_90" data-name="Group 90">
          <g id="Group_88" data-name="Group 88">
            <g id="Group_87" data-name="Group 87">
              <g id="Group_86" data-name="Group 86">
                <path id="Path_167" data-name="Path 167" d="M571.373,340.371,570.3,310.747l7.4-7.481-4.478-.7c-3.245,0-7.808,4.113-7.909,13.2l-.027,19.677C565.086,338.485,571.373,340.371,571.373,340.371Z" fill="#28856d" stroke="#1a1818" stroke-linecap="round" stroke-linejoin="round" stroke-width="0.25"/>
              </g>
            </g>
          </g>
          <g id="Group_89" data-name="Group 89">
            <path id="Path_168" data-name="Path 168" d="M574.545,340.128c4.965-2.337,7.018-7.642,7.019-9.921,0-4.166,0-3.415.006-5.776.008-6.59.019-15.96.019-16.041,0-2.052-.741-4.005-2.2-4.736-2.645-1.327-6.8.818-9.112,5.419a16.454,16.454,0,0,0-1.384,5.779l-.022,12.89,0,5.57C568.868,340.387,571.679,341.477,574.545,340.128Zm-1.739-29.735c1.236-2.464,3.316-3.922,4.644-3.255s1.4,3.2.169,5.669-3.315,3.922-4.644,3.255S571.571,312.858,572.806,310.393Zm.016,20.063c1.236-2.465,3.315-3.922,4.644-3.256s1.4,3.2.169,5.669-3.315,3.922-4.644,3.256S571.586,332.92,572.822,330.456Z" fill="#2f7362" stroke="#1a1818" stroke-linecap="round" stroke-linejoin="round" stroke-width="0.25"/>
          </g>
          <path id="Path_169" data-name="Path 169" d="M574.2,321.011c.529-1.053,1.417-1.676,1.985-1.391s.6,1.369.072,2.422-1.417,1.675-1.984,1.391S573.669,322.064,574.2,321.011Z" fill="#cfcfcf" stroke="#1a1818" stroke-linecap="round" stroke-linejoin="round" stroke-width="0.25"/>
          <path id="Path_170" data-name="Path 170" d="M577.437,307.136a1.947,1.947,0,0,0-1.676.07,7.1,7.1,0,0,1-.827,3.943,6.773,6.773,0,0,1-2.969,3.186,2.119,2.119,0,0,0,1,1.726c1.329.666,3.408-.791,4.644-3.256S578.766,307.8,577.437,307.136Z" fill="#1d604f" stroke="#1a1818" stroke-linecap="round" stroke-linejoin="round" stroke-width="0.25"/>
          <path id="Path_171" data-name="Path 171" d="M577.437,327.2a1.947,1.947,0,0,0-1.676.07,7.1,7.1,0,0,1-.827,3.943,6.766,6.766,0,0,1-2.969,3.185,2.123,2.123,0,0,0,1,1.727c1.329.666,3.408-.792,4.644-3.256S578.766,327.865,577.437,327.2Z" fill="#1d604f" stroke="#1a1818" stroke-linecap="round" stroke-linejoin="round" stroke-width="0.25"/>
        </g>
      </g>
      <g id="Group_95" data-name="Group 95">
        <path id="Path_172" data-name="Path 172" d="M578.25,176.966a1.951,1.951,0,0,0-1.679.071,7.11,7.11,0,0,1-.83,3.95,6.774,6.774,0,0,1-2.974,3.192,2.124,2.124,0,0,0,1,1.73c1.331.668,3.415-.793,4.653-3.262S579.582,177.634,578.25,176.966Z" fill="#1d604f" stroke="#1a1818" stroke-linecap="round" stroke-linejoin="round" stroke-width="0.25"/>
        <path id="Path_173" data-name="Path 173" d="M596.648,166.293a1.947,1.947,0,0,0-1.679.07,7.113,7.113,0,0,1-.83,3.951,6.783,6.783,0,0,1-2.974,3.192,2.124,2.124,0,0,0,1,1.729c1.331.668,3.415-.792,4.653-3.262S597.98,166.96,596.648,166.293Z" fill="#1d604f" stroke="#1a1818" stroke-linecap="round" stroke-linejoin="round" stroke-width="0.25"/>
        <g id="Group_94" data-name="Group 94">
          <g id="Group_93" data-name="Group 93">
            <g id="Group_92" data-name="Group 92">
              <path id="Path_174" data-name="Path 174" d="M594.518,161.461c-2.113-1.048-6.244,1.524-8.3,2.675l-14.141,8.46c-3.23,2.037-5.126,4.494-5.644,7.6a10.946,10.946,0,0,0,.658,5.535c.925,1.591,5.938,3.037,5.938,3.037l-1.885-10.846,23.582-13.356c.61-.313,4.7-.321,4.108-.67Z" fill="#28856d" stroke="#1a1818" stroke-linecap="round" stroke-linejoin="round" stroke-width="0.25"/>
            </g>
          </g>
        </g>
        <path id="Path_175" data-name="Path 175" d="M585.719,174.407c.535.352.439,1.441-.213,2.432s-1.614,1.509-2.149,1.157-.439-1.44.214-2.431S585.185,174.056,585.719,174.407Z" fill="#6fb32f" stroke="#000" stroke-linecap="round" stroke-linejoin="round" stroke-width="0.25"/>
        <path id="Path_176" data-name="Path 176" d="M591.614,164.718l-4.857,2.811s-13.017,7.746-14.088,8.7c-5.16,4.585-2.793,10.372-1.7,11.449a4.676,4.676,0,0,0,5.321.7l13.981-8.1c2.058-1.192,1.4-.815,5.034-2.916a11.026,11.026,0,0,0,4.788-10.306C599.824,163.87,597.784,161.153,591.614,164.718Zm-13.287,17.807c-1.238,2.47-3.322,3.93-4.653,3.263s-1.408-3.211-.169-5.681,3.322-3.93,4.653-3.262S579.565,180.056,578.327,182.525Zm18.433-10.744c-1.238,2.47-3.321,3.93-4.653,3.263s-1.407-3.211-.169-5.681,3.322-3.93,4.653-3.262S598,169.312,596.76,171.781Z" fill="#2f7362" stroke="#1a1818" stroke-linecap="round" stroke-linejoin="round" stroke-width="0.25"/>
        <path id="Path_177" data-name="Path 177" d="M586.119,176.5c-.529,1.055-1.419,1.679-1.988,1.394s-.6-1.372-.072-2.427,1.419-1.679,1.988-1.394S586.648,175.443,586.119,176.5Z" fill="#cdcdcc" stroke="#000" stroke-linecap="round" stroke-linejoin="round" stroke-width="0.25"/>
      </g>
    </g>
  </g>
</svg>
