<svg id="Group_1" data-name="Group 1" xmlns="http://www.w3.org/2000/svg" width="35.453" height="29.412" viewBox="0 0 35.453 29.412">
  <path id="Path_1" data-name="Path 1" d="M334.992,48.12l-.6-.037c.023-.281.009-.772.009-.772l-8.645-.006v3.319h4.679c-3.051,6.414-13.612,3.885-13.346-3.349-.348-6.885,9.354-9.518,12.784-4.174l2.594-1.913a9.452,9.452,0,0,0-2.828-2.646c.9-.97-.211-1.152-1.2-1.634-1.015-.344-1.831-.935-1.881.328a10.377,10.377,0,0,0-3.794-.192c.085-1.327-.893-.762-1.963-.5-1.027.382-2.008.459-1.225,1.478a10.318,10.318,0,0,0-2.917,2.167c-.775-1.05-1.158.019-1.819.878-.53.924-1.275,1.612-.051,1.905a10.215,10.215,0,0,0-.911,3.8c-1.279-.295-.878.764-.814,1.851.2,1.05.088,2.055,1.209,1.475a10.242,10.242,0,0,0,1.755,3.437c-1.167.6-.176,1.149.574,1.939.837.68,1.4,1.509,1.882.336a10.219,10.219,0,0,0,3.457,1.462c-.518,1.208.594,1,1.678,1.129,1.087-.009,2.041.265,1.661-.954a10.193,10.193,0,0,0,3.495-1.036c.347,1.292,1.093.443,2.02-.161.848-.7,1.746-1.1.669-1.8a10.3,10.3,0,0,0,2.109-3.112c.232.067.762.475.914.1C334.653,50.822,335.68,48.551,334.992,48.12Z" transform="translate(-312.96 -36.198)" fill="#007686"/>
  <path id="Path_2" data-name="Path 2" d="M321.933,50.484a6.5,6.5,0,0,0-5.634-2.613,13.645,13.645,0,0,1,.928,1.206l-3.338,2.486c-.12-.332-1.589-1.964-1.787-1.881a5.864,5.864,0,0,0-1.74,4.776h3.551c-.694-3.117,4.006-4.571,5.3-1.742l2.811-2.1S321.961,50.523,321.933,50.484Z" transform="translate(-297.136 -43.897)" fill="#1a1818"/>
  <path id="Path_3" data-name="Path 3" d="M316.809,36.9l-.081.182a2.616,2.616,0,0,1-2.837,4.4c-.57.393-2.275,1.7-2.6.413a12.345,12.345,0,0,1-1.393.522,6.1,6.1,0,1,0,8.552-8.224C318.174,34.029,318.113,37.468,316.809,36.9Z" transform="translate(-295.839 -21.097)" fill="#1a1818"/>
  <path id="Path_4" data-name="Path 4" d="M306.835,29.009l-7.062,0v2.808a6.719,6.719,0,0,1,0,10.369v6.005h3.141V40.275C313.223,41.975,314.233,30.257,306.835,29.009Zm-.924,8.38h-3.022V32.05h3.294C309.119,32.232,309.186,37.488,305.911,37.389Z" transform="translate(-276.191 -18.781)" fill="#fb9335"/>
</svg>
