<svg xmlns="http://www.w3.org/2000/svg" width="550" height="414" viewBox="0 0 550 414"><g transform="translate(-87.017 86.898)"><g transform="translate(276.298 -86.898)"><ellipse cx="24.74" cy="24.74" rx="24.74" ry="24.74" transform="translate(98.241 0)" fill="#febf50"/><g transform="translate(0 47.981)"><path d="M445.162,109.105c0-37.564-7.2-76.573-64.516-76.573-25.387,0-50.978,14.659-60.841,35.716A100.733,100.733,0,0,1,369.9,58.575c32.905,2.216,40.512,23.818,41.323,39.656l-.333,65.061a35.572,35.572,0,0,1-1.937,10.843A47.347,47.347,0,0,1,363.641,205.5c-18.738.443-38.1-16.357-36.757-42.857.776-15.342,8.954-27.484,24.651-40.277a173.021,173.021,0,0,1,52.113-29.811c-29.549.634-58.093,10.479-74.41,22.816a77.576,77.576,0,0,0-31.8,61.471c0,27.107,19.363,53.828,57.313,53.828a69.8,69.8,0,0,0,57.317-27.883l-.328,27.825h52.135c-.833-4.57-18.888-16.171-18.888-16.171Z" transform="translate(-297.441 -32.532)" fill="#febf50"/></g></g><text transform="translate(87.017 289.102)" fill="#2b6859" font-size="151" font-family="SegoeUI, Segoe UI"><tspan x="0" y="0">artaman</tspan></text></g></svg>