<svg xmlns="http://www.w3.org/2000/svg" width="234.314" height="609.045" viewBox="0 0 234.314 609.045">
  <g id="Group_25" data-name="Group 25" transform="translate(-540 -74.553)">
    <g id="Group_18" data-name="Group 18">
      <path id="Path_48" data-name="Path 48" d="M772.814,267.641,753.7,260l-70.486,40.226V411.121c.813,18.331.935,33.947,8.438,38.677,8.945,5.64,24.1,9.156,24.1,9.156l-1.721-157.769Z" fill="#262626" stroke="#fff" stroke-linecap="round" stroke-linejoin="round" stroke-width="3"/>
      <line id="Line_3" data-name="Line 3" x2="18.166" y2="7.641" transform="translate(683.217 300.226)" stroke="#fff" stroke-linecap="round" stroke-linejoin="round" stroke-width="3"/>
      <path id="Path_49" data-name="Path 49" d="M772.814,267.641l-70.486,40.226s-.146,112.013-.146,112.7c0,20.616,4.111,33.752,12.2,37.809,14.68,7.362,36.961-7.371,49.767-32.906a79.828,79.828,0,0,0,8.489-29.243Zm-21.89,153.336c-6.859,13.678-18.4,21.768-25.774,18.069s-7.8-17.785-.936-31.463,18.4-21.767,25.774-18.068S757.783,407.3,750.924,420.977Z" fill="#0d0d0d" stroke="#fff" stroke-linecap="round" stroke-linejoin="round" stroke-width="3"/>
      <path id="Path_50" data-name="Path 50" d="M749.773,389.507c-2.689-1.348-5.935-1.1-9.3.389.808,6.083-.65,14.018-4.594,21.882-4.359,8.692-10.6,15.092-16.472,17.68.6,4.5,2.395,8.008,5.53,9.581,7.375,3.7,18.915-4.391,25.774-18.069S757.149,393.206,749.773,389.507Z" stroke="#fff" stroke-linecap="round" stroke-linejoin="round" stroke-width="3"/>
      <path id="Path_51" data-name="Path 51" d="M757.551,294.825l.342,18.443-40.452,23.891-.339-18.278Z" stroke="#fff" stroke-linecap="round" stroke-linejoin="round" stroke-width="3"/>
      <path id="Path_52" data-name="Path 52" d="M746.452,360.684c-2.93,5.843-7.86,9.3-11.011,7.719s-3.331-7.6-.4-13.442,7.86-9.3,11.012-7.72S749.383,354.84,746.452,360.684Z" stroke="#fff" stroke-linecap="round" stroke-linejoin="round" stroke-width="3"/>
    </g>
    <g id="Group_22" data-name="Group 22">
      <path id="Path_53" data-name="Path 53" d="M602.013,163.143c3.083-1.546,6.8-1.256,10.665.446-.925,6.974.746,16.072,5.268,25.089,5,9.965,12.157,17.3,18.886,20.27-.684,5.155-2.746,9.182-6.34,10.985-8.457,4.241-21.687-5.035-29.552-20.717S593.557,167.384,602.013,163.143Z" fill="#1c6b58" stroke="#fff" stroke-linecap="round" stroke-linejoin="round" stroke-width="3"/>
      <g id="Group_21" data-name="Group 21">
        <g id="Group_20" data-name="Group 20">
          <g id="Group_19" data-name="Group 19">
            <path id="Path_54" data-name="Path 54" d="M541.5,109.346V76.053c3.743,2.074,7.141,4.05,9.936,5.612l89.806,53.725c20.513,12.932,32.553,28.54,35.842,48.241,2.046,12.259-.973,29.63-4.18,35.151-5.87,10.1-37.71,19.287-37.71,19.287l11.97-68.878Z" fill="#259680" stroke="#fff" stroke-linecap="round" stroke-linejoin="round" stroke-width="3"/>
          </g>
        </g>
      </g>
      <path id="Path_55" data-name="Path 55" d="M568.226,154.244c4.142,6.294,4.748,13.207,1.354,15.44s-9.5-1.058-13.645-7.352-4.748-13.206-1.354-15.44S564.084,147.95,568.226,154.244Z" fill="#368476" stroke="#fff" stroke-linecap="round" stroke-linejoin="round" stroke-width="3"/>
      <path id="Path_56" data-name="Path 56" d="M541.5,193.292l72.971,42.277c11.357,6.58,26.372,2.917,33.794-4.412,6.928-6.842,21.963-43.591-10.807-72.711-6.8-6.043-89.469-55.238-89.469-55.238L541.5,99.452Zm61.1-30.92c8.456-4.241,21.687,5.034,29.551,20.717s7.384,31.832-1.073,36.074-21.686-5.036-29.55-20.717S594.142,166.613,602.6,162.372Z" fill="#368476" stroke="#fff" stroke-linecap="round" stroke-linejoin="round" stroke-width="3"/>
      <path id="Path_57" data-name="Path 57" d="M552.5,144.755c3.613-1.812,9.266,2.151,12.626,8.851s3.155,13.6-.458,15.412-9.266-2.151-12.626-8.851S548.885,146.567,552.5,144.755Z" fill="#1c6b58" stroke="#fff" stroke-linecap="round" stroke-linejoin="round" stroke-width="3"/>
    </g>
    <g id="Group_23" data-name="Group 23">
      <path id="Path_58" data-name="Path 58" d="M589.534,279.8a12.1,12.1,0,0,0-8.7-.22c1.75,6.23.931,14.6-2.845,22.814-4.286,9.318-11.2,15.844-17.834,17.866,1.15,4.1,3.384,7.287,6.715,8.819,8.4,3.862,20.279-4.038,26.538-17.646S597.931,283.662,589.534,279.8Z" fill="#f7b218" stroke="#fff" stroke-linecap="round" stroke-linejoin="round" stroke-width="3"/>
      <path id="Path_59" data-name="Path 59" d="M573.542,246.172c-13.892-2.693-24.875,3.645-32.042,10.037v53.846l23.294-37.344,38.893-11.446Z" fill="#f9cb67" stroke="#fff" stroke-linecap="round" stroke-linejoin="round" stroke-width="3"/>
      <path id="Path_60" data-name="Path 60" d="M541.5,466.722l109.341-61.617L650.12,294.46c0-2.113-.342-5-4.684-8.255L602.8,260.735c-9.4-5.617-21.316-5.817-30.506.14a60.916,60.916,0,0,0-16.8,17.153L541.5,301.97Zm24.485-168.606c6.509-12.979,17.459-20.655,24.458-17.146s7.4,16.877.888,29.856-17.459,20.655-24.458,17.145S559.476,311.1,565.985,298.116Z" fill="#fbc53a" stroke="#fff" stroke-linecap="round" stroke-linejoin="round" stroke-width="3"/>
      <path id="Path_61" data-name="Path 61" d="M589.212,378.8c-3.13,6.8-9.07,10.754-13.269,8.823s-5.065-9.012-1.935-15.817,9.071-10.754,13.269-8.822S592.342,371.993,589.212,378.8Z" fill="#f7b218" stroke="#fff" stroke-linecap="round" stroke-linejoin="round" stroke-width="3"/>
      <path id="Path_62" data-name="Path 62" d="M630.134,328.91c-3.129,6.8-9.07,10.754-13.269,8.823s-5.065-9.013-1.935-15.817S624,311.162,628.2,313.093,633.264,322.106,630.134,328.91Z" fill="#f7b218" stroke="#fff" stroke-linecap="round" stroke-linejoin="round" stroke-width="3"/>
      <path id="Path_63" data-name="Path 63" d="M562.211,442.109v-17.5l38.8-21.954V420Z" fill="#f7b218" stroke="#fff" stroke-linecap="round" stroke-linejoin="round" stroke-width="3"/>
    </g>
    <g id="Group_24" data-name="Group 24">
      <path id="Path_64" data-name="Path 64" d="M541.5,538.266l102.047-45.955L634.211,470.7s-20.823-12.485-31.941-7.235L541.5,498.716Z" fill="#262626" stroke="#fff" stroke-linecap="round" stroke-linejoin="round" stroke-width="3"/>
      <path id="Path_65" data-name="Path 65" d="M642.873,542.963c-3.627,7.884-9.415,13.482-15.04,15.416a10.379,10.379,0,0,0,4.89,5.207c7.316,3.365,17.667-3.518,23.121-15.373s3.944-24.2-3.372-27.56a10.731,10.731,0,0,0-8.08-.043C647.031,526.136,646.7,534.635,642.873,542.963Z" stroke="#fff" stroke-linecap="round" stroke-linejoin="round" stroke-width="3"/>
      <path id="Path_66" data-name="Path 66" d="M568.525,643.483c-3.627,7.885-9.415,13.482-15.041,15.417a10.389,10.389,0,0,0,4.891,5.207c7.315,3.365,17.667-3.518,23.12-15.374s3.944-24.194-3.371-27.559a10.727,10.727,0,0,0-8.08-.044C572.683,626.657,572.356,635.156,568.525,643.483Z" stroke="#fff" stroke-linecap="round" stroke-linejoin="round" stroke-width="3"/>
      <path id="Path_67" data-name="Path 67" d="M672.576,519.345c-4.135-11.19-33.662-44.47-33.662-44.47s-4.941-7.721-11.426-3.706L541.5,520.777V679.1l11.254,2.372s14.206,5.867,35.2-21.618l77.194-105.4S677.826,533.55,672.576,519.345Zm-91.469,130c-5.454,11.856-15.8,18.738-23.121,15.373s-8.825-15.7-3.371-27.56,15.8-18.738,23.12-15.372S586.56,637.493,581.107,649.349ZM655.558,548.6c-5.454,11.856-15.8,18.739-23.121,15.373s-8.825-15.7-3.372-27.559,15.806-18.739,23.121-15.373S661.011,536.744,655.558,548.6Z" fill="#0d0d0d" stroke="#fff" stroke-linecap="round" stroke-linejoin="round" stroke-width="3"/>
      <ellipse id="Ellipse_9" data-name="Ellipse 9" cx="11.171" cy="6.794" rx="11.171" ry="6.794" transform="translate(596.601 605.259) rotate(-63.744)" stroke="#fff" stroke-linecap="round" stroke-linejoin="round" stroke-width="3"/>
      <ellipse id="Ellipse_10" data-name="Ellipse 10" cx="11.171" cy="6.794" rx="11.171" ry="6.794" transform="translate(557.482 598.248) rotate(-63.744)" stroke="#fff" stroke-linecap="round" stroke-linejoin="round" stroke-width="3"/>
      <ellipse id="Ellipse_11" data-name="Ellipse 11" cx="11.171" cy="6.794" rx="11.171" ry="6.794" transform="translate(608.027 512.78) rotate(-63.744)" stroke="#fff" stroke-linecap="round" stroke-linejoin="round" stroke-width="3"/>
      <path id="Path_68" data-name="Path 68" d="M586.106,507.918l-35.823,21.617-.618,19.456,36.749-21.617Z" stroke="#fff" stroke-linecap="round" stroke-linejoin="round" stroke-width="3"/>
    </g>
  </g>
</svg>
