<svg xmlns="http://www.w3.org/2000/svg" width="612.08" height="811.161" viewBox="0 0 612.08 811.161"><g transform="translate(1.25 -353.811)"><g transform="translate(0 355.199)"><path d="M46.187,136.8a39.573,39.573,0,0,0-20.9-21.429,14.44,14.44,0,0,1,6.8-7.242c10.173-4.676,24.564,4.889,32.147,21.386s5.482,33.634-4.69,38.314a14.917,14.917,0,0,1-11.232.058A38.363,38.363,0,0,0,46.187,136.8Z" transform="translate(95.877 56.496)" fill="#1b3c34" stroke="#fff" stroke-linecap="round" stroke-linejoin="round" stroke-width="2.5"/><path d="M24.921,165.552a39.569,39.569,0,0,0-20.9-21.434,14.411,14.411,0,0,1,6.8-7.237c10.168-4.681,24.559,4.89,32.142,21.386s5.483,33.634-4.685,38.314a14.917,14.917,0,0,1-11.232.058,38.368,38.368,0,0,0-2.129-31.087Z" transform="translate(13.783 -112.003)" fill="#1b3c34" stroke="#fff" stroke-linecap="round" stroke-linejoin="round" stroke-width="2.5"/><g transform="translate(0 0)"><path d="M.358,135.833l98.35,57.046c15.456,7.291,31.675-7.509,31.675-7.509l12.977-30.037-143-64.4Z" transform="translate(-0.358 108.384)" fill="#2b6859" stroke="#fff" stroke-linecap="round" stroke-linejoin="round" stroke-width="2.5"/><path d="M.358,96.955l16.778-3.534s19.748-8.161,48.944,30.052L173.4,270s17.619,29.07,10.323,48.818c-5.75,15.553-46.8,61.824-46.8,61.824s-6.868,10.732-15.884,5.152L.358,316.173Zm122.87,198.138c7.582,16.482,21.974,26.052,32.142,21.386s12.272-21.833,4.69-38.314-21.974-26.052-32.147-21.386-12.268,21.833-4.685,38.314ZM19.722,155.031C27.3,171.513,41.7,181.078,51.868,176.417s12.268-21.833,4.685-38.314S34.58,112.051,24.412,116.717,12.14,138.54,19.722,155.031Z" transform="translate(-0.358 -92.69)" fill="#214e43" stroke="#fff" stroke-linecap="round" stroke-linejoin="round" stroke-width="2.5"/></g><ellipse cx="15.529" cy="9.444" rx="15.529" ry="9.444" transform="matrix(0.442, 0.897, -0.897, 0.442, 94.676, 98.332)" fill="#1b3c34" stroke="#fff" stroke-linecap="round" stroke-linejoin="round" stroke-width="2.5"/><ellipse cx="15.529" cy="9.444" rx="15.529" ry="9.444" transform="matrix(0.442, 0.897, -0.897, 0.442, 40.293, 108.077)" fill="#1b3c34" stroke="#fff" stroke-linecap="round" stroke-linejoin="round" stroke-width="2.5"/><ellipse cx="15.529" cy="9.444" rx="15.529" ry="9.444" transform="matrix(0.442, 0.897, -0.897, 0.442, 110.559, 226.904)" fill="#1b3c34" stroke="#fff" stroke-linecap="round" stroke-linejoin="round" stroke-width="2.5"/><path d="M53.6,160.633,3.783,130.581l-.86-27.048L54.03,133.575Z" transform="translate(9.544 81.382)" fill="#1b3c34" stroke="#fff" stroke-linecap="round" stroke-linejoin="round" stroke-width="2.5"/></g><g transform="translate(164.822 750.702)"><path d="M34.643,53.176l17.931-7.169L118.72,83.75V187.81c-.742,17.2-.876,31.85-7.915,36.292a90.644,90.644,0,0,1-22.618,8.591L89.8,84.652Z" transform="translate(-34.643 -46.007)" fill="rgba(0,0,0,0.94)" stroke="#fff" stroke-linecap="round" stroke-linejoin="round" stroke-width="2.5"/><line x1="17.044" y2="7.169" transform="translate(67.033 37.743)" stroke="#fff" stroke-linecap="round" stroke-linejoin="round" stroke-width="2.5"/><path d="M39.438,47.939l66.146,37.747s.137,105.1.137,105.759c0,19.345-3.859,31.672-11.452,35.479-13.775,6.906-34.682-6.917-46.7-30.878A74.959,74.959,0,0,1,39.609,168.6ZM59.985,191.82c6.435,12.832,17.263,20.41,24.184,16.955s7.314-16.7.879-29.524S67.781,158.842,60.861,162.3,53.539,178.984,59.985,191.82Z" transform="translate(-39.438 -40.77)" fill="rgba(0,0,0,0.94)" stroke="#fff" stroke-linecap="round" stroke-linejoin="round" stroke-width="2.5"/><path d="M49.256,79.348a10.123,10.123,0,0,1,8.728.371A36.949,36.949,0,0,0,62.3,100.252a35.216,35.216,0,0,0,15.456,16.588,11.04,11.04,0,0,1-5.2,8.991c-6.921,3.47-17.745-4.119-24.184-16.955S42.335,82.818,49.256,79.348Z" transform="translate(-27.629 42.171)" fill="rgba(0,0,0,0.94)" stroke="#fff" stroke-linecap="round" stroke-linejoin="round" stroke-width="2.5"/><path d="M43.534,54.813l-.323,17.3L81.158,94.534l.33-17.133Z" transform="translate(-29.206 -22.135)" fill="rgba(0,0,0,0.94)" stroke="#fff" stroke-linecap="round" stroke-linejoin="round" stroke-width="2.5"/><path d="M49.176,80.946c2.75,5.485,7.377,8.724,10.335,7.244s3.125-7.129.371-12.617S52.5,66.845,49.551,68.329,46.426,75.461,49.176,80.946Z" transform="translate(-24.436 13.529)" fill="rgba(0,0,0,0.94)" stroke="#fff" stroke-linecap="round" stroke-linejoin="round" stroke-width="2.5"/></g><g transform="matrix(0.899, 0.438, -0.438, 0.899, 419.433, 890)"><path d="M411.793,149.555a12.236,12.236,0,0,0,10.527-.44,44.649,44.649,0,0,1,5.208-24.806,42.577,42.577,0,0,1,18.67-20.038,13.326,13.326,0,0,0-6.266-10.861c-8.36-4.192-21.444,4.954-29.215,20.484S403.446,145.363,411.793,149.555Z" transform="translate(-274.26 -74.625)" fill="#fff" stroke="#000" stroke-linecap="round" stroke-linejoin="round" stroke-width="1.25"/><path d="M430.452,138.733a12.236,12.236,0,0,0,10.527-.44,44.654,44.654,0,0,1,5.208-24.806,42.579,42.579,0,0,1,18.67-20.038,13.326,13.326,0,0,0-6.267-10.861c-8.359-4.192-21.444,4.954-29.215,20.484S422.092,134.541,430.452,138.733Z" transform="translate(-408.43 3.21)" fill="#fff" stroke="#000" stroke-linecap="round" stroke-linejoin="round" stroke-width="1.25"/><g transform="translate(7.961 0.864)"><path d="M426.1,248c13.27,6.576,39.2-9.573,52.133-16.8l88.785-53.117c20.279-12.787,32.2-28.218,35.438-47.681a68.735,68.735,0,0,0-4.136-34.751c-5.8-9.988-37.278-19.072-37.278-19.072L572.872,144.7,424.814,228.551c-3.833,1.969-29.494,2.019-25.791,4.2Z" transform="translate(-398.659 -76.58)" fill="#fff" stroke="#000" stroke-linecap="round" stroke-linejoin="round" stroke-width="1.25"/></g><path d="M417.751,113.072c-3.356-2.211-2.755-9.047,1.338-15.27s10.137-9.474,13.493-7.264,2.755,9.041-1.338,15.264S421.108,115.276,417.751,113.072Z" transform="translate(-327.112 -22.073)" fill="#fff" stroke="#000" stroke-linecap="round" stroke-linejoin="round" stroke-width="1.25"/><path d="M455.486,230.254l30.491-17.648s81.739-48.634,88.451-54.61c32.4-28.788,17.537-65.124,10.688-71.886a29.37,29.37,0,0,0-33.438-4.335L463.92,132.614c-12.917,7.486-8.8,5.121-31.581,18.311a69.217,69.217,0,0,0-30.107,64.666C403.929,235.579,416.734,252.639,455.486,230.254Zm83.41-111.8c7.778-15.481,20.856-24.676,29.215-20.484s8.837,20.162,1.065,35.668-20.856,24.67-29.221,20.478S531.125,133.958,538.9,118.452ZM423.162,185.9c7.778-15.481,20.856-24.676,29.215-20.478s8.836,20.156,1.065,35.661-20.856,24.676-29.215,20.484S415.391,201.41,423.162,185.9Z" transform="translate(-401.846 -78.422)" fill="#fff" stroke="#000" stroke-linecap="round" stroke-linejoin="round" stroke-width="1.25"/><path d="M418.619,98.725c3.325-6.626,8.911-10.527,12.484-8.75s3.777,8.613.452,15.239-8.911,10.527-12.478,8.75S415.3,105.35,418.619,98.725Z" transform="translate(-330.494 -20.853)" fill="#fff" stroke="#000" stroke-linecap="round" stroke-linejoin="round" stroke-width="1.25"/></g><g transform="translate(10.324 960.337)"><path d="M468.095,100.375A16.034,16.034,0,0,0,481.9,99.8a58.5,58.5,0,0,1,6.821-32.483A55.766,55.766,0,0,1,513.177,41.07a17.466,17.466,0,0,0-8.21-14.227c-10.946-5.49-28.077,6.519-38.258,26.822S457.144,94.885,468.095,100.375Z" transform="translate(-381.466 -2.228)" fill="#febf50" stroke="#fff" stroke-linecap="round" stroke-linejoin="round" stroke-width="2.25"/><g transform="translate(0 1.142)"><path d="M446.8,203.01h21.34l116.061-69.435c26.558-16.737,42.145-36.948,46.4-62.456,2.649-15.867-1.255-38.358-5.415-45.5C617.6,12.534,576.376.642,576.376.642l15.482,89.173L446.8,171.987Z" transform="translate(-446.803 -0.642)" fill="#febf50" stroke="#fff" stroke-linecap="round" stroke-linejoin="round" stroke-width="2.25"/></g><path d="M482.434,50.991C478.04,48.1,478.823,39.149,484.187,31s13.273-12.407,17.666-9.515,3.607,11.842-1.753,19.989S486.827,53.895,482.434,50.991Z" transform="translate(-457.215 68.196)" fill="#febf50" stroke="#fff" stroke-linecap="round" stroke-linejoin="round" stroke-width="2.25"/><path d="M452.977,190.367l16.687-9.653S576.688,117.019,585.491,109.2c42.429-37.7,22.964-85.277,13.992-94.148a38.454,38.454,0,0,0-43.751-5.712L452.977,68.9Zm86-132.954c10.18-20.3,27.311-32.312,38.257-26.822s11.57,26.4,1.389,46.7-27.311,32.312-38.258,26.822S528.793,77.715,538.974,57.413Z" transform="translate(-452.977 -4.971)" fill="#febf50" stroke="#fff" stroke-linecap="round" stroke-linejoin="round" stroke-width="2.25"/><path d="M484,32.022c4.347-8.674,11.666-13.808,16.344-11.457s4.946,11.277.594,19.951-11.67,13.808-16.344,11.461S479.666,40.688,484,32.022Z" transform="translate(-462.087 69.983)" fill="#febf50" stroke="#fff" stroke-linecap="round" stroke-linejoin="round" stroke-width="2.25"/></g><g transform="translate(0 680.183)"><path d="M516.138,118.408a14.744,14.744,0,0,1-10.583.266A41.782,41.782,0,0,0,502.1,90.939a39.061,39.061,0,0,0-21.673-21.723,15.875,15.875,0,0,1,8.167-10.725c10.2-4.694,24.652,4.911,32.262,21.456S526.349,113.708,516.138,118.408Z" transform="translate(-459.758 107.722)" fill="#fff" stroke="#000" stroke-linecap="round" stroke-linejoin="round" stroke-width="1.25"/><path d="M525.792,122.128c-23.116,4.477-39.63-11.6-46.64-20.28v-50.5l26.28,42.108,47.284,13.914Z" transform="translate(-479.152 141.236)" fill="#fff" stroke="#000" stroke-linecap="round" stroke-linejoin="round" stroke-width="1.25"/><path d="M469.889,255.562l14.967,25.617a74.051,74.051,0,0,0,20.434,20.856,35.233,35.233,0,0,0,37.092.173l51.836-30.961a11.486,11.486,0,0,0,5.691-10.038l.879-134.515L469.889,52.9Zm28.807-35.1c8.508-4.267,21.822,5.065,29.723,20.843s7.431,32.027-1.077,36.3-21.822-5.065-29.723-20.849S490.188,224.731,498.7,220.464Z" transform="translate(-469.864 -52.901)" fill="#fff" stroke="#000" stroke-linecap="round" stroke-linejoin="round" stroke-width="1.25"/><path d="M490.826,87.1V73.974a17.789,17.789,0,0,1,0,13.121Z" transform="translate(-490.801 36.911)" fill="#fff" stroke="#000" stroke-linecap="round" stroke-linejoin="round" stroke-width="1.25"/><path d="M502.389,85.038c-3.8-8.273-11.028-13.072-16.131-10.725S480.1,85.267,483.9,93.54s11.029,13.078,16.131,10.725S506.2,93.311,502.389,85.038Z" transform="translate(-446.398 20.732)" fill="#fff" stroke="#000" stroke-linecap="round" stroke-linejoin="round" stroke-width="1.25"/><path d="M494.356,73.4c-3.8-8.267-11.022-13.072-16.131-10.725s-6.155,10.96-2.353,19.233S486.9,94.977,492.009,92.63,498.164,81.67,494.356,73.4Z" transform="translate(-388.616 104.452)" fill="#fff" stroke="#000" stroke-linecap="round" stroke-linejoin="round" stroke-width="1.25"/><path d="M479.674,81.6v21.283l47.167,26.689V108.483Z" transform="translate(-456.509 -52.802)" fill="#fff" stroke="#000" stroke-linecap="round" stroke-linejoin="round" stroke-width="1.25"/></g><g transform="translate(388.095 871.244) rotate(65)"><ellipse cx="37.042" cy="37.042" rx="37.042" ry="37.042" transform="translate(0 0)" fill="#fff" stroke="#000" stroke-linecap="round" stroke-linejoin="round" stroke-width="1.25"/><path d="M457.625,161.7V55.939c0-3.567-4.452-11.189-18.373-11.189-12.744,0-18.372,7.623-18.372,11.189V161.7Z" transform="translate(-402.216 10.999)" fill="#fff" stroke="#000" stroke-linecap="round" stroke-linejoin="round" stroke-width="1.25"/><ellipse cx="37.042" cy="37.042" rx="37.042" ry="37.042" transform="translate(0 112.861)" fill="#fff" stroke="#000" stroke-linecap="round" stroke-linejoin="round" stroke-width="1.25"/></g></g></svg>