<svg xmlns="http://www.w3.org/2000/svg" width="234.314" height="609.045" viewBox="0 0 234.314 609.045">
  <g id="Group_24" data-name="Group 24" transform="translate(-969 -79.553)">
    <path id="Path_49" data-name="Path 49" d="M970.5,272.641,989.612,265l70.485,40.226V416.121c-.813,18.331-.935,33.947-8.437,38.677-8.946,5.64-24.1,9.156-24.1,9.156l1.72-157.769Z" fill="#fff" stroke="#414042" stroke-linecap="round" stroke-linejoin="round" stroke-width="3"/>
    <line id="Line_3" data-name="Line 3" x1="18.166" y2="7.641" transform="translate(1041.931 305.226)" fill="#fff" stroke="#000" stroke-linecap="round" stroke-linejoin="round" stroke-width="3"/>
    <path id="Path_50" data-name="Path 50" d="M970.675,401.231a79.812,79.812,0,0,0,8.49,29.243c12.8,25.535,35.086,40.268,49.766,32.906,8.091-4.057,12.2-17.193,12.2-37.809,0-.691-.146-112.7-.146-112.7L970.5,272.641Zm22.651-6.716c7.375-3.7,18.915,4.391,25.774,18.068s6.44,27.764-.936,31.463-18.915-4.391-25.774-18.069S985.95,398.213,993.326,394.515Z" fill="#fff" stroke="#414042" stroke-linecap="round" stroke-linejoin="round" stroke-width="3"/>
    <path id="Path_51" data-name="Path 51" d="M993.541,394.507c2.689-1.348,5.935-1.1,9.3.389-.808,6.083.65,14.018,4.594,21.882,4.359,8.692,10.6,15.092,16.472,17.68-.6,4.5-2.4,8.008-5.53,9.581-7.375,3.7-18.914-4.391-25.774-18.069S986.165,398.206,993.541,394.507Z" fill="#fff" stroke="#414042" stroke-linecap="round" stroke-linejoin="round" stroke-width="3"/>
    <path id="Path_52" data-name="Path 52" d="M985.763,299.825l-.342,18.443,40.452,23.891.339-18.278Z" fill="#fff" stroke="#414042" stroke-linecap="round" stroke-linejoin="round" stroke-width="3"/>
    <path id="Path_53" data-name="Path 53" d="M997.262,352.241c3.151-1.58,8.081,1.877,11.011,7.72s2.752,11.862-.4,13.442-8.082-1.876-11.012-7.719S994.11,353.822,997.262,352.241Z" fill="#fff" stroke="#414042" stroke-linecap="round" stroke-linejoin="round" stroke-width="3"/>
    <g id="Group_21" data-name="Group 21">
      <path id="Path_54" data-name="Path 54" d="M1141.3,168.143c-3.083-1.546-6.805-1.256-10.665.446.926,6.974-.746,16.072-5.268,25.089-5,9.965-12.157,17.3-18.886,20.27.684,5.155,2.746,9.182,6.341,10.985,8.456,4.241,21.686-5.035,29.551-20.717S1149.758,172.384,1141.3,168.143Z" fill="#fff" stroke="#257762" stroke-linecap="round" stroke-linejoin="round" stroke-width="3"/>
      <g id="Group_20" data-name="Group 20">
        <g id="Group_19" data-name="Group 19">
          <g id="Group_18" data-name="Group 18">
            <path id="Path_55" data-name="Path 55" d="M1201.814,114.346V81.053c-3.743,2.074-7.141,4.05-9.935,5.612l-89.806,53.725c-20.514,12.932-32.554,28.54-35.843,48.241-2.046,12.259.973,29.63,4.181,35.151,5.87,10.1,37.709,19.287,37.709,19.287l-11.97-68.878Z" fill="#fff" stroke="#257762" stroke-linecap="round" stroke-linejoin="round" stroke-width="3"/>
          </g>
        </g>
      </g>
      <path id="Path_56" data-name="Path 56" d="M1188.733,151.892c3.394,2.234,2.788,9.147-1.354,15.44s-10.251,9.586-13.645,7.352-2.788-9.146,1.354-15.44S1185.339,149.658,1188.733,151.892Z" fill="#fff" stroke="#257762" stroke-linecap="round" stroke-linejoin="round" stroke-width="3"/>
      <path id="Path_57" data-name="Path 57" d="M1201.814,104.452l-6.489,3.756s-82.668,49.195-89.469,55.238c-32.77,29.12-17.735,65.869-10.807,72.711,7.422,7.329,22.437,10.992,33.794,4.412l72.971-42.277Zm-60.025,98.994c-7.864,15.681-21.095,24.957-29.551,20.717s-8.937-20.393-1.073-36.074,21.095-24.958,29.551-20.717S1149.653,187.763,1141.789,203.446Z" fill="#fff" stroke="#257762" stroke-linecap="round" stroke-linejoin="round" stroke-width="3"/>
      <path id="Path_58" data-name="Path 58" d="M1191.274,165.167c-3.36,6.7-9.013,10.663-12.625,8.851s-3.819-8.712-.459-15.412,9.013-10.663,12.626-8.851S1194.634,158.467,1191.274,165.167Z" fill="#fff" stroke="#257762" stroke-linecap="round" stroke-linejoin="round" stroke-width="3"/>
    </g>
    <g id="Group_22" data-name="Group 22">
      <path id="Path_59" data-name="Path 59" d="M1153.78,284.8a12.1,12.1,0,0,1,8.7-.22c-1.75,6.23-.931,14.6,2.845,22.814,4.286,9.318,11.2,15.844,17.835,17.866-1.151,4.1-3.385,7.287-6.716,8.819-8.4,3.862-20.279-4.038-26.538-17.646S1145.383,288.662,1153.78,284.8Z" fill="#fff" stroke="#fcb638" stroke-linecap="round" stroke-linejoin="round" stroke-width="3"/>
      <path id="Path_60" data-name="Path 60" d="M1169.772,251.172c13.892-2.693,24.875,3.645,32.042,10.037v53.846l-23.293-37.344-38.894-11.446Z" fill="#fff" stroke="#fcb638" stroke-linecap="round" stroke-linejoin="round" stroke-width="3"/>
      <path id="Path_61" data-name="Path 61" d="M1201.814,306.97l-13.989-23.942a60.92,60.92,0,0,0-16.8-17.153c-9.191-5.957-21.1-5.757-30.507-.14l-42.635,25.47c-4.343,3.254-4.685,6.142-4.685,8.255l-.721,110.645,109.341,61.617Zm-25.373,26c-7,3.51-17.949-4.166-24.457-17.145s-6.112-26.345.888-29.856,17.948,4.167,24.457,17.146S1183.44,329.462,1176.441,332.971Z" fill="#fff" stroke="#fcb638" stroke-linecap="round" stroke-linejoin="round" stroke-width="3"/>
      <path id="Path_62" data-name="Path 62" d="M1154.1,383.8c3.13,6.8,9.071,10.754,13.269,8.823s5.065-9.012,1.935-15.817-9.071-10.754-13.269-8.822S1150.972,376.993,1154.1,383.8Z" fill="#fff" stroke="#fcb638" stroke-linecap="round" stroke-linejoin="round" stroke-width="3"/>
      <path id="Path_63" data-name="Path 63" d="M1113.18,333.91c3.13,6.8,9.07,10.754,13.269,8.823s5.065-9.013,1.935-15.817-9.071-10.754-13.269-8.823S1110.05,327.106,1113.18,333.91Z" fill="#fff" stroke="#fcb638" stroke-linecap="round" stroke-linejoin="round" stroke-width="3"/>
      <path id="Path_64" data-name="Path 64" d="M1181.1,447.109v-17.5l-38.8-21.954V425Z" fill="#fff" stroke="#fcb638" stroke-linecap="round" stroke-linejoin="round" stroke-width="3"/>
    </g>
    <g id="Group_23" data-name="Group 23">
      <path id="Path_65" data-name="Path 65" d="M1201.814,543.266l-102.047-45.955L1109.1,475.7s20.824-12.485,31.941-7.235l60.77,35.247Z" fill="#fff" stroke="#257762" stroke-linecap="round" stroke-linejoin="round" stroke-width="3"/>
      <path id="Path_66" data-name="Path 66" d="M1100.441,547.963c3.627,7.884,9.415,13.482,15.041,15.416a10.385,10.385,0,0,1-4.891,5.207c-7.315,3.365-17.667-3.518-23.12-15.373s-3.944-24.2,3.371-27.56a10.731,10.731,0,0,1,8.08-.043C1096.283,531.136,1096.61,539.635,1100.441,547.963Z" fill="#fff" stroke="#257762" stroke-linecap="round" stroke-linejoin="round" stroke-width="3"/>
      <path id="Path_67" data-name="Path 67" d="M1174.789,648.483c3.627,7.885,9.415,13.482,15.041,15.417a10.384,10.384,0,0,1-4.891,5.207c-7.315,3.365-17.667-3.518-23.12-15.374s-3.944-24.194,3.372-27.559a10.724,10.724,0,0,1,8.079-.044C1170.631,631.657,1170.958,640.156,1174.789,648.483Z" fill="#fff" stroke="#257762" stroke-linecap="round" stroke-linejoin="round" stroke-width="3"/>
      <path id="Path_68" data-name="Path 68" d="M1078.162,559.459l77.193,105.4c21,27.485,35.205,21.618,35.205,21.618l11.254-2.372V525.777l-85.988-49.608c-6.485-4.015-11.426,3.706-11.426,3.706s-29.527,33.28-33.662,44.47C1065.488,538.55,1078.162,559.459,1078.162,559.459Zm87.417,67.331c7.316-3.366,17.667,3.517,23.121,15.372s3.944,24.2-3.372,27.56-17.667-3.517-23.121-15.373S1158.263,630.155,1165.579,626.79Zm-74.451-100.75c7.316-3.366,17.667,3.517,23.121,15.373s3.944,24.194-3.372,27.559-17.667-3.517-23.12-15.373S1083.812,529.405,1091.128,526.04Z" fill="#fff" stroke="#257762" stroke-linecap="round" stroke-linejoin="round" stroke-width="3"/>
      <ellipse id="Ellipse_11" data-name="Ellipse 11" cx="6.794" cy="11.171" rx="6.794" ry="11.171" transform="translate(1124.644 596.233) rotate(-26.256)" fill="#fff" stroke="#257762" stroke-linecap="round" stroke-linejoin="round" stroke-width="3"/>
      <ellipse id="Ellipse_12" data-name="Ellipse 12" cx="6.794" cy="11.171" rx="6.794" ry="11.171" transform="translate(1163.762 589.223) rotate(-26.256)" fill="#fff" stroke="#257762" stroke-linecap="round" stroke-linejoin="round" stroke-width="3"/>
      <ellipse id="Ellipse_13" data-name="Ellipse 13" cx="6.794" cy="11.171" rx="6.794" ry="11.171" transform="translate(1113.218 503.754) rotate(-26.256)" fill="#fff" stroke="#257762" stroke-linecap="round" stroke-linejoin="round" stroke-width="3"/>
      <path id="Path_69" data-name="Path 69" d="M1157.208,512.918l35.823,21.617.618,19.456-36.75-21.617Z" fill="#fff" stroke="#257762" stroke-linecap="round" stroke-linejoin="round" stroke-width="3"/>
    </g>
  </g>
</svg>
