<svg xmlns="http://www.w3.org/2000/svg" width="301.464" height="801.066" viewBox="0 0 301.464 801.066"><g transform="translate(-1619.785 -446.75)"><g transform="translate(1621.035 682.953)"><path d="M34.643,56.151l25.37-10.144,93.587,53.4v147.23c-1.05,24.335-1.239,45.064-11.2,51.348a128.249,128.249,0,0,1-32,12.155l2.284-209.457Z" transform="translate(-34.643 -46.007)" fill="#febf50" stroke="#fff" stroke-linecap="round" stroke-linejoin="round" stroke-width="2.5"/><line x1="24.115" y2="10.144" transform="translate(94.842 53.401)" stroke="#fff" stroke-linecap="round" stroke-linejoin="round" stroke-width="2.5"/><path d="M39.438,47.939l93.587,53.406s.194,148.705.194,149.635c0,27.37-5.46,44.812-16.2,50.2-19.489,9.771-49.07-9.787-66.07-43.688A106.057,106.057,0,0,1,39.68,218.664ZM68.509,251.511c9.1,18.156,24.425,28.877,34.216,23.989s10.348-23.627,1.244-41.772-24.43-28.877-34.222-23.989S59.389,233.35,68.509,251.511Z" transform="translate(-39.438 -37.795)" fill="#febf50" stroke="#fff" stroke-linecap="round" stroke-linejoin="round" stroke-width="2.5"/><path d="M51.522,79.686a14.323,14.323,0,0,1,12.349.525,52.278,52.278,0,0,0,6.1,29.05A49.825,49.825,0,0,0,91.839,132.73a15.62,15.62,0,0,1-7.351,12.722c-9.792,4.909-25.107-5.828-34.216-23.989S41.73,84.595,51.522,79.686Z" transform="translate(-20.923 92.247)" fill="#febf50" stroke="#fff" stroke-linecap="round" stroke-linejoin="round" stroke-width="2.5"/><path d="M43.668,54.813,43.211,79.3,96.9,111.013l.467-24.241Z" transform="translate(-23.396 -8.578)" fill="#febf50" stroke="#fff" stroke-linecap="round" stroke-linejoin="round" stroke-width="2.5"/><path d="M49.988,86.33c3.89,7.76,10.438,12.344,14.622,10.249s4.421-10.086.525-17.851S54.7,66.378,50.518,68.478,46.1,78.57,49.988,86.33Z" transform="translate(-14.984 47.339)" fill="#febf50" stroke="#fff" stroke-linecap="round" stroke-linejoin="round" stroke-width="2.5"/></g><g transform="translate(1694.882 448)"><path d="M73.007,26.654a19.3,19.3,0,0,0-16.612.7,70.3,70.3,0,0,1-8.206,39.073A67.057,67.057,0,0,1,18.787,98a21,21,0,0,0,9.876,17.106c13.168,6.6,33.775-7.839,46.024-32.263S86.18,33.254,73.007,26.654Z" transform="translate(44.957 100.105)" fill="#1b3c34" stroke="#fff" stroke-linecap="round" stroke-linejoin="round" stroke-width="2.5"/><g transform="translate(0)"><path d="M223.1,1.257H197.411L57.805,84.785c-31.975,20.13-50.729,44.455-55.848,75.138-3.187,19.1,1.517,46.151,6.51,54.751C17.609,230.424,67.2,244.71,67.2,244.71L48.559,137.43,223.1,38.582Z" transform="translate(-0.918 -1.257)" fill="#2b6859" stroke="#fff" stroke-linecap="round" stroke-linejoin="round" stroke-width="2.5"/></g><path d="M11.578,32.912c-6.453,9.808-7.4,20.571-2.1,24.052s14.79-1.649,21.232-11.451,7.4-20.571,2.1-24.052S18.03,23.109,11.578,32.912Z" transform="translate(159.011 79.981)" fill="#214e43" stroke="#fff" stroke-linecap="round" stroke-linejoin="round" stroke-width="2.5"/><path d="M192.005,151.556,68.386,223.181a46.271,46.271,0,0,1-52.635-6.873c-10.789-10.658-34.206-67.9,16.833-113.25,10.6-9.414,139.349-86.037,139.349-86.037L192.005,5.407ZM86.878,109.175c-13.168-6.6-33.775,7.839-46.024,32.263s-11.5,49.579,1.67,56.179,33.781-7.844,46.024-32.269,11.5-49.569-1.67-56.173Z" transform="translate(30.173 16.382)" fill="#214e43" stroke="#fff" stroke-linecap="round" stroke-linejoin="round" stroke-width="2.5"/><path d="M28.627,20.5C23,17.677,14.194,23.851,8.959,34.284s-4.914,21.185.714,24,14.433-3.371,19.663-13.782S34.25,23.321,28.627,20.5Z" transform="translate(166.459 77.617)" fill="#1b3c34" stroke="#fff" stroke-linecap="round" stroke-linejoin="round" stroke-width="2.5"/></g><g transform="translate(1720.014 918.802)"><path d="M49.707,141.677a42.749,42.749,0,0,0,22.576,23.149,15.6,15.6,0,0,1-7.35,7.823c-10.989,5.051-26.535-5.282-34.726-23.1s-5.922-36.332,5.067-41.389a16.114,16.114,0,0,1,12.133-.063,41.441,41.441,0,0,0,2.3,33.581Z" transform="translate(-3.184 -22.865)" fill="#1b3c34" stroke="#fff" stroke-linecap="round" stroke-linejoin="round" stroke-width="2.5"/><path d="M28.436,170.429a42.743,42.743,0,0,0,22.576,23.154,15.567,15.567,0,0,1-7.35,7.818c-10.984,5.056-26.53-5.282-34.72-23.1S3.019,141.967,14,136.911a16.113,16.113,0,0,1,12.134-.063,41.446,41.446,0,0,0,2.3,33.581Z" transform="translate(129.741 99.341)" fill="#1b3c34" stroke="#fff" stroke-linecap="round" stroke-linejoin="round" stroke-width="2.5"/><g transform="translate(0)"><path d="M154.833,154.732,48.593,93.108c-16.7-7.876-34.216,8.112-34.216,8.112L.358,133.667,154.833,203.24Z" transform="translate(45.152 -90.928)" fill="#2b6859" stroke="#fff" stroke-linecap="round" stroke-linejoin="round" stroke-width="2.5"/><path d="M200.344,406.445l-18.124,3.817s-21.332,8.815-52.871-32.463L13.421,219.512s-19.032-31.4-11.152-52.735c6.211-16.8,50.555-66.784,50.555-66.784S60.244,88.4,69.983,94.427l130.361,75.211ZM67.615,192.409c-8.191-17.8-23.737-28.142-34.72-23.1S19.638,192.892,27.828,210.7s23.737,28.142,34.726,23.1,13.252-23.585,5.061-41.389Zm111.811,151.3c-8.191-17.8-23.737-28.137-34.726-23.1S131.449,344.191,139.639,362s23.737,28.142,34.72,23.1S187.617,361.523,179.426,343.708Z" transform="translate(-0.358 -83.436)" fill="#214e43" stroke="#fff" stroke-linecap="round" stroke-linejoin="round" stroke-width="2.5"/></g><ellipse cx="16.775" cy="10.201" rx="16.775" ry="10.201" transform="matrix(-0.442, -0.897, 0.897, -0.442, 97.714, 221.394)" fill="#1b3c34" stroke="#fff" stroke-linecap="round" stroke-linejoin="round" stroke-width="2.5"/><ellipse cx="16.775" cy="10.201" rx="16.775" ry="10.201" transform="matrix(-0.442, -0.897, 0.897, -0.442, 156.46, 210.867)" fill="#1b3c34" stroke="#fff" stroke-linecap="round" stroke-linejoin="round" stroke-width="2.5"/><ellipse cx="16.775" cy="10.201" rx="16.775" ry="10.201" transform="matrix(-0.442, -0.897, 0.897, -0.442, 80.556, 82.506)" fill="#1b3c34" stroke="#fff" stroke-linecap="round" stroke-linejoin="round" stroke-width="2.5"/><path d="M3.385,103.533,57.2,136l.929,29.218L2.923,132.762Z" transform="translate(128.388 -37.35)" fill="#1b3c34" stroke="#fff" stroke-linecap="round" stroke-linejoin="round" stroke-width="2.5"/></g><g transform="translate(1777.758 672.238)"><path d="M490.517,58.518a16.019,16.019,0,0,1,11.5-.289,45.394,45.394,0,0,0,3.754,30.133,42.437,42.437,0,0,0,23.547,23.6,17.248,17.248,0,0,1-8.874,11.652c-11.087,5.1-26.783-5.335-35.051-23.311S479.423,63.625,490.517,58.518Z" transform="translate(-409.53 -17.226)" fill="#fff" stroke="#000" stroke-linecap="round" stroke-linejoin="round" stroke-width="1.25"/><path d="M508.4,52.183c25.114-4.864,43.057,12.608,50.672,22.033v54.87L530.524,83.339,479.152,68.222Z" transform="translate(-416.834 -51.344)" fill="#fff" stroke="#000" stroke-linecap="round" stroke-linejoin="round" stroke-width="1.25"/><path d="M612.1,109.218,595.843,81.386a80.454,80.454,0,0,0-22.2-22.659,38.279,38.279,0,0,0-40.3-.188L477.027,92.177a12.478,12.478,0,0,0-6.183,10.905l-.955,146.144L612.1,329.4Zm-31.3,38.132c-9.244,4.635-23.708-5.5-32.292-22.645s-8.073-34.8,1.171-39.437,23.708,5.5,32.292,22.652S590.05,142.715,580.807,147.35Z" transform="translate(-469.889 -42.429)" fill="#fff" stroke="#000" stroke-linecap="round" stroke-linejoin="round" stroke-width="1.25"/><path d="M492.188,73.974V88.23a19.327,19.327,0,0,1,0-14.256Z" transform="translate(-349.973 78.27)" fill="#fff" stroke="#000" stroke-linecap="round" stroke-linejoin="round" stroke-width="1.25"/><path d="M484.105,95.256c4.131,8.988,11.982,14.2,17.525,11.652s6.687-11.9,2.557-20.889S492.205,71.81,486.662,74.367,479.968,86.268,484.105,95.256Z" transform="translate(-402.695 76.8)" fill="#fff" stroke="#000" stroke-linecap="round" stroke-linejoin="round" stroke-width="1.25"/><path d="M476.075,83.62c4.131,8.981,11.975,14.2,17.525,11.652s6.687-11.908,2.557-20.9-11.982-14.2-17.532-11.652S471.937,74.632,476.075,83.62Z" transform="translate(-448.714 10.127)" fill="#fff" stroke="#000" stroke-linecap="round" stroke-linejoin="round" stroke-width="1.25"/><path d="M530.918,133.721V110.6l-51.244-29v22.914Z" transform="translate(-413.845 121.96)" fill="#fff" stroke="#000" stroke-linecap="round" stroke-linejoin="round" stroke-width="1.25"/></g></g></svg>