<svg xmlns="http://www.w3.org/2000/svg" width="137.268" height="218.973" viewBox="0 0 137.268 218.973"><g opacity="0.23"><circle cx="20.404" cy="20.404" r="20.404" transform="translate(68.634)" fill="#2b6859"/><g transform="translate(0 55.544)"><path d="M419.273,95.686c0-30.981-5.941-63.154-53.209-63.154-20.938,0-42.044,12.09-50.178,29.456A83.079,83.079,0,0,1,357.2,54.011c27.138,1.828,33.412,19.644,34.081,32.706L391,140.376a29.339,29.339,0,0,1-1.6,8.943,39.05,39.05,0,0,1-37.368,25.87c-15.454.366-31.42-13.491-30.315-35.346.64-12.653,7.385-22.667,20.331-33.218a142.7,142.7,0,0,1,42.98-24.587c-24.371.523-47.912,8.643-61.369,18.817a63.98,63.98,0,0,0-26.224,50.7c0,22.356,15.969,44.395,47.268,44.395a57.571,57.571,0,0,0,47.272-23l-.271,22.949h43c-.687-3.769-15.578-13.337-15.578-13.337Z" transform="translate(-297.441 -32.532)" fill="#2b6859"/></g></g></svg>