<svg xmlns="http://www.w3.org/2000/svg" width="111.284" height="244.158" viewBox="0 0 111.284 244.158">
  <g id="Group_1" data-name="Group 1" transform="translate(-91.253 -259.766)">
    <path id="Path_1" data-name="Path 1" d="M201.037,270.461l-23-9.2L93.217,309.673v133.45c.979,22.06,1.125,40.852,10.154,46.544,10.765,6.787,29.006,11.019,29.006,11.019l-2.07-189.859Z" fill="#262626" stroke="#fff" stroke-linecap="round" stroke-linejoin="round" stroke-width="3"/>
    <line id="Line_1" data-name="Line 1" x2="21.861" y2="9.196" transform="translate(93.217 309.673)" stroke="#fff" stroke-linecap="round" stroke-linejoin="round" stroke-width="3"/>
    <path id="Path_2" data-name="Path 2" d="M201.037,270.461l-84.821,48.408s-.177,134.794-.177,135.626c0,24.81,4.947,40.617,14.683,45.5,17.666,8.858,44.479-8.871,59.889-39.6a96.084,96.084,0,0,0,10.216-35.19ZM174.7,454.984c-8.254,16.46-22.141,26.195-31.016,21.744s-9.38-21.4-1.126-37.862,22.14-26.2,31.016-21.744S182.949,438.525,174.7,454.984Z" fill="#0d0d0d" stroke="#fff" stroke-linecap="round" stroke-linejoin="round" stroke-width="3"/>
    <path id="Path_3" data-name="Path 3" d="M173.31,417.114c-3.235-1.623-7.142-1.318-11.194.468.972,7.32-.782,16.868-5.528,26.332-5.246,10.46-12.76,18.161-19.823,21.275.718,5.411,2.882,9.638,6.655,11.53,8.875,4.451,22.762-5.284,31.016-21.744S182.186,421.564,173.31,417.114Z" stroke="#fff" stroke-linecap="round" stroke-linejoin="round" stroke-width="3"/>
    <path id="Path_4" data-name="Path 4" d="M182.67,303.174l.412,22.194L134.4,354.118l-.408-22Z" stroke="#fff" stroke-linecap="round" stroke-linejoin="round" stroke-width="3"/>
    <path id="Path_5" data-name="Path 5" d="M169.314,382.428c-3.527,7.032-9.46,11.191-13.252,9.289s-4.007-9.144-.481-16.176,9.46-11.191,13.252-9.29S172.84,375.395,169.314,382.428Z" stroke="#fff" stroke-linecap="round" stroke-linejoin="round" stroke-width="3"/>
  </g>
</svg>
