<svg xmlns="http://www.w3.org/2000/svg" width="256.511" height="243.118" viewBox="0 0 256.511 243.118">
  <g id="Group_9" data-name="Group 9" transform="translate(-232.033 -189.662)">
    <path id="Path_22" data-name="Path 22" d="M453.938,224.076l-10.193-23.59s-22.734-13.63-34.872-7.9l-118,68.443s-9.441,5.057-16.184,19.036l-37.762,90.359s-8.429,22.434,1.349,30.344c0,0,19.1,8.588,28.543,11.285l-.337-35.739,48.551-89.684Z" fill="#262626" stroke="#fff" stroke-linecap="round" stroke-linejoin="round" stroke-width="3"/>
    <path id="Path_23" data-name="Path 23" d="M453.2,279.376c-3.959,8.608-10.279,14.719-16.42,16.831a11.332,11.332,0,0,0,5.339,5.685c7.987,3.674,19.288-3.841,25.242-16.784s4.306-26.415-3.681-30.089a11.709,11.709,0,0,0-8.821-.047C457.742,261.006,457.385,270.285,453.2,279.376Z" stroke="#fff" stroke-linecap="round" stroke-linejoin="round" stroke-width="3"/>
    <path id="Path_24" data-name="Path 24" d="M372.031,389.121c-3.959,8.608-10.279,14.72-16.42,16.831a11.324,11.324,0,0,0,5.339,5.685c7.987,3.674,19.288-3.84,25.242-16.784s4.306-26.415-3.681-30.089a11.716,11.716,0,0,0-8.822-.047C376.571,370.751,376.214,380.03,372.031,389.121Z" stroke="#fff" stroke-linecap="round" stroke-linejoin="round" stroke-width="3"/>
    <path id="Path_25" data-name="Path 25" d="M289.6,373.7c-3.96,8.608-10.279,14.72-16.421,16.831a11.328,11.328,0,0,0,5.339,5.685c7.987,3.674,19.288-3.84,25.243-16.784s4.305-26.415-3.682-30.089a11.714,11.714,0,0,0-8.821-.047C294.135,355.326,293.778,364.605,289.6,373.7Z" stroke="#fff" stroke-linecap="round" stroke-linejoin="round" stroke-width="3"/>
    <path id="Path_26" data-name="Path 26" d="M485.631,253.591c-4.515-12.216-36.751-48.551-36.751-48.551s-5.394-8.429-12.474-4.046L313.679,271.8s-10.788,5.732-15.509,15.509l-37.762,90.359s-10.2,26.169,6.406,34.39l88,18.544s15.509,6.406,38.436-23.6l84.277-115.071S491.362,269.1,485.631,253.591ZM304.54,379.26c-5.954,12.944-17.255,20.458-25.242,16.784s-9.635-17.145-3.681-30.089,17.255-20.458,25.242-16.784S310.494,366.316,304.54,379.26Zm81.228,16.265c-5.954,12.944-17.256,20.458-25.243,16.784s-9.635-17.145-3.681-30.089,17.256-20.457,25.243-16.783S391.722,382.582,385.768,395.525ZM467.051,285.53c-5.954,12.943-17.256,20.458-25.243,16.784s-9.635-17.146-3.68-30.089,17.255-20.458,25.242-16.784S473.005,272.586,467.051,285.53Z" fill="#0d0d0d" stroke="#fff" stroke-linecap="round" stroke-linejoin="round" stroke-width="3"/>
    <ellipse id="Ellipse_3" data-name="Ellipse 3" cx="12.196" cy="7.418" rx="12.196" ry="7.418" transform="translate(402.684 347.389) rotate(-63.744)" stroke="#fff" stroke-linecap="round" stroke-linejoin="round" stroke-width="3"/>
    <ellipse id="Ellipse_4" data-name="Ellipse 4" cx="12.196" cy="7.418" rx="12.196" ry="7.418" transform="translate(359.975 339.735) rotate(-63.744)" stroke="#fff" stroke-linecap="round" stroke-linejoin="round" stroke-width="3"/>
    <ellipse id="Ellipse_5" data-name="Ellipse 5" cx="12.196" cy="7.418" rx="12.196" ry="7.418" transform="translate(316.698 395.699) rotate(-63.744)" stroke="#fff" stroke-linecap="round" stroke-linejoin="round" stroke-width="3"/>
    <ellipse id="Ellipse_6" data-name="Ellipse 6" cx="12.196" cy="7.418" rx="12.196" ry="7.418" transform="translate(303.803 310.136) rotate(-63.744)" stroke="#fff" stroke-linecap="round" stroke-linejoin="round" stroke-width="3"/>
    <ellipse id="Ellipse_7" data-name="Ellipse 7" cx="12.196" cy="7.418" rx="12.196" ry="7.418" transform="translate(415.158 246.424) rotate(-63.744)" stroke="#fff" stroke-linecap="round" stroke-linejoin="round" stroke-width="3"/>
    <path id="Path_27" data-name="Path 27" d="M391.226,241.116l-39.11,23.6-.674,21.241,40.122-23.6Z" stroke="#fff" stroke-linecap="round" stroke-linejoin="round" stroke-width="3"/>
  </g>
</svg>
