<svg xmlns="http://www.w3.org/2000/svg" width="177.068" height="247.485" viewBox="0 0 177.068 247.485">
  <g id="Group_8" data-name="Group 8" transform="translate(-294.931 -458.015)">
    <path id="Path_15" data-name="Path 15" d="M409.192,493.8a12.1,12.1,0,0,0-8.7-.22c1.75,6.23.931,14.6-2.845,22.814-4.286,9.318-11.2,15.844-17.834,17.866,1.15,4.1,3.384,7.287,6.715,8.819,8.4,3.862,20.279-4.038,26.538-17.646S417.589,497.662,409.192,493.8Z" fill="#f7b218" stroke="#fff" stroke-linecap="round" stroke-linejoin="round" stroke-width="3"/>
    <path id="Path_16" data-name="Path 16" d="M393.2,460.172c-25.7-4.981-41.472,20.944-41.472,20.944l-53.371,91.347a14.1,14.1,0,0,0-1.926,7.114V693.088L319.85,703.71V590.279l64.6-103.568,38.894-11.446Z" fill="#f9cb67" stroke="#fff" stroke-linecap="round" stroke-linejoin="round" stroke-width="3"/>
    <path id="Path_17" data-name="Path 17" d="M469.778,508.46c0-2.113-.342-5-4.685-8.255l-42.635-25.47c-9.4-5.617-21.316-5.817-30.506.14a60.916,60.916,0,0,0-16.8,17.153l-53.371,91.346a14.1,14.1,0,0,0-1.926,7.115V704L470.5,619.1Zm-58.79,16.366c-6.508,12.979-17.458,20.655-24.457,17.145s-7.4-16.876-.888-29.855S403.1,491.461,410.1,494.97,417.5,511.847,410.988,524.826Z" fill="#fbc53a" stroke="#fff" stroke-linecap="round" stroke-linejoin="round" stroke-width="3"/>
    <path id="Path_18" data-name="Path 18" d="M362.007,590.729c-3.13,6.8-9.07,10.755-13.269,8.823s-5.065-9.012-1.935-15.817,9.071-10.754,13.269-8.822S365.137,583.925,362.007,590.729Z" fill="#f7b218" stroke="#fff" stroke-linecap="round" stroke-linejoin="round" stroke-width="3"/>
    <path id="Path_19" data-name="Path 19" d="M408.87,592.8c-3.13,6.8-9.071,10.754-13.269,8.823s-5.065-9.012-1.935-15.817,9.071-10.754,13.269-8.822S412,585.993,408.87,592.8Z" fill="#f7b218" stroke="#fff" stroke-linecap="round" stroke-linejoin="round" stroke-width="3"/>
    <path id="Path_20" data-name="Path 20" d="M449.792,542.91c-3.129,6.8-9.07,10.754-13.269,8.823s-5.065-9.013-1.935-15.817,9.071-10.754,13.269-8.823S452.922,536.106,449.792,542.91Z" fill="#f7b218" stroke="#fff" stroke-linecap="round" stroke-linejoin="round" stroke-width="3"/>
    <path id="Path_21" data-name="Path 21" d="M381.868,656.109v-17.5l38.8-21.954V634Z" fill="#f7b218" stroke="#fff" stroke-linecap="round" stroke-linejoin="round" stroke-width="3"/>
  </g>
</svg>
