<svg xmlns="http://www.w3.org/2000/svg" width="247.507" height="203.267" viewBox="0 0 247.507 203.267">
  <g id="Group_5" data-name="Group 5" transform="translate(-38.747 -493.835)">
    <path id="Path_6" data-name="Path 6" d="M126.5,609.205c-3.509-1.76-7.747-1.429-12.142.508,1.054,7.94-.849,18.3-6,28.563-5.689,11.346-13.841,19.7-21.5,23.078.779,5.869,3.127,10.455,7.219,12.507,9.627,4.828,24.69-5.732,33.644-23.586S136.133,614.033,126.5,609.205Z" fill="#1c6b58" stroke="#fff" stroke-linecap="round" stroke-linejoin="round" stroke-width="3"/>
    <path id="Path_7" data-name="Path 7" d="M259.525,532.033c-3.509-1.76-7.747-1.429-12.142.508,1.054,7.94-.849,18.3-6,28.564-5.689,11.345-13.841,19.7-21.5,23.078.779,5.869,3.127,10.454,7.219,12.506,9.627,4.828,24.69-5.732,33.644-23.586S269.153,536.861,259.525,532.033Z" fill="#1c6b58" stroke="#fff" stroke-linecap="round" stroke-linejoin="round" stroke-width="3"/>
    <g id="Group_4" data-name="Group 4">
      <g id="Group_3" data-name="Group 3">
        <g id="Group_2" data-name="Group 2">
          <path id="Path_8" data-name="Path 8" d="M244.125,497.1c-15.281-7.578-45.149,11.021-60.037,19.345L81.844,577.608C58.489,592.332,44.781,610.1,41.037,632.531c-2.329,13.957,1.108,33.734,4.76,40.019,6.683,11.5,42.932,21.959,42.932,21.959L75.1,616.09l170.5-96.565c4.409-2.263,33.963-2.322,29.695-4.841Z" fill="#259680" stroke="#fff" stroke-linecap="round" stroke-linejoin="round" stroke-width="3"/>
        </g>
      </g>
    </g>
    <path id="Path_9" data-name="Path 9" d="M180.507,590.7c3.864,2.542,3.174,10.413-1.542,17.579s-11.671,10.913-15.535,8.37-3.173-10.413,1.542-17.579S176.643,588.161,180.507,590.7Z" fill="#368476" stroke="#fff" stroke-linecap="round" stroke-linejoin="round" stroke-width="3"/>
    <path id="Path_10" data-name="Path 10" d="M223.125,520.65l-35.113,20.319S93.894,596.977,86.151,603.858c-37.308,33.152-20.191,74.992-12.3,82.781,8.45,8.345,25.544,12.515,38.474,5.024L213.4,633.1c14.88-8.621,10.132-5.9,36.4-21.087,14.364-8.3,37.972-34.692,34.618-74.515C282.484,514.514,267.74,494.872,223.125,520.65ZM127.061,649.4c-8.954,17.854-24.016,28.415-33.644,23.587s-10.175-23.217-1.222-41.07,24.018-28.414,33.645-23.587S136.014,631.543,127.061,649.4Zm133.274-77.68c-8.954,17.855-24.016,28.415-33.644,23.587s-10.175-23.216-1.222-41.07,24.017-28.414,33.644-23.587S269.288,553.864,260.335,571.717Z" fill="#368476" stroke="#fff" stroke-linecap="round" stroke-linejoin="round" stroke-width="3"/>
    <path id="Path_11" data-name="Path 11" d="M183.4,605.817c-3.825,7.628-10.261,12.14-14.374,10.077s-4.347-9.919-.522-17.547,10.261-12.139,14.374-10.077S187.225,598.189,183.4,605.817Z" fill="#1c6b58" stroke="#fff" stroke-linecap="round" stroke-linejoin="round" stroke-width="3"/>
  </g>
</svg>
