<svg xmlns="http://www.w3.org/2000/svg" width="442.358" height="748.197" viewBox="0 0 442.358 748.197"><g transform="translate(0.644 0.625)"><g transform="translate(0 362.61)"><path d="M431.726,93.15a9.436,9.436,0,0,0-8.118.339,34.43,34.43,0,0,1-4.016,19.132,32.832,32.832,0,0,1-14.4,15.452,10.277,10.277,0,0,0,4.832,8.379c6.446,3.233,16.536-3.821,22.529-15.8S438.159,96.383,431.726,93.15Z" transform="translate(-373.983 -16.887)" fill="#fff" stroke="#000" stroke-linecap="round" stroke-linejoin="round" stroke-width="1.25"/><path d="M450.38,82.328a9.436,9.436,0,0,0-8.118.339,34.435,34.435,0,0,1-4.016,19.132,32.833,32.833,0,0,1-14.4,15.452,10.277,10.277,0,0,0,4.832,8.379c6.446,3.233,16.536-3.821,22.529-15.8S456.828,85.561,450.38,82.328Z" transform="translate(-303.561 -57.74)" fill="#fff" stroke="#000" stroke-linecap="round" stroke-linejoin="round" stroke-width="1.25"/><g transform="translate(0 0)"><path d="M535.164,77.768c-10.233-5.071-30.231,7.382-40.2,12.955L426.5,131.685c-15.64,9.86-24.831,21.76-27.327,36.768a53,53,0,0,0,3.19,26.8c4.469,7.7,28.746,14.708,28.746,14.708l-9.124-52.525L536.154,92.768c2.956-1.518,22.744-1.557,19.888-3.243Z" transform="translate(-398.659 -76.58)" fill="#fff" stroke="#000" stroke-linecap="round" stroke-linejoin="round" stroke-width="1.25"/></g><path d="M428.69,90.377c2.588,1.705,2.125,6.982-1.032,11.775s-7.82,7.306-10.405,5.6-2.125-6.971,1.032-11.771S426.1,88.676,428.69,90.377Z" transform="translate(-334.784 -26.506)" fill="#fff" stroke="#000" stroke-linecap="round" stroke-linejoin="round" stroke-width="1.25"/><path d="M509.067,86.589,485.554,100.2s-63.031,37.5-68.208,42.112c-24.983,22.2-13.523,50.22-8.239,55.44a22.648,22.648,0,0,0,25.786,3.343l67.673-39.2c9.961-5.773,6.785-3.949,24.353-14.12A53.376,53.376,0,0,0,550.135,97.9C548.83,82.482,538.95,69.325,509.067,86.589ZM444.747,172.8c-6,11.938-16.083,19.028-22.529,15.8s-6.815-15.548-.821-27.51S437.478,142.07,443.93,145.3s6.809,15.543.817,27.5Zm89.247-52.016c-6,11.938-16.083,19.028-22.529,15.791s-6.813-15.543-.821-27.5,16.083-19.028,22.529-15.8,6.813,15.551.82,27.5Z" transform="translate(-386.629 -69.627)" fill="#fff" stroke="#000" stroke-linecap="round" stroke-linejoin="round" stroke-width="1.25"/><path d="M428.06,101.63c-2.564,5.11-6.871,8.118-9.626,6.748s-2.913-6.642-.349-11.751,6.871-8.118,9.622-6.748S430.62,96.518,428.06,101.63Z" transform="translate(-332.215 -27.633)" fill="#fff" stroke="#000" stroke-linecap="round" stroke-linejoin="round" stroke-width="1.25"/></g><g transform="translate(191.958 237.498)"><path d="M438.861,58.974l21.487-8.6,79.309,45.264V220.416c-.916,20.629-1.056,38.2-9.5,43.519a108.645,108.645,0,0,1-27.122,10.3l1.91-177.513Z" transform="translate(-438.851 -50.379)" fill="#fff" stroke="#cd7518" stroke-linecap="round" stroke-linejoin="round" stroke-width="1.25"/><line x1="20.437" y2="8.599" transform="translate(80.379 45.258)" fill="#fff" stroke="#cd7518" stroke-linecap="round" stroke-linejoin="round" stroke-width="1.25"/><path d="M439.056,196.864a89.818,89.818,0,0,0,9.55,32.9c14.411,28.732,39.479,45.311,56,37.026,9.1-4.565,13.729-19.344,13.729-42.541,0-.778-.168-126.812-.168-126.812L438.859,52.179Zm25.484-7.559c8.3-4.159,21.282,4.942,29,20.333s7.249,31.239-1.05,35.4-21.282-4.938-29-20.327-7.243-31.239,1.06-35.384Z" transform="translate(-438.859 -43.584)" fill="#fff" stroke="#cd7518" stroke-linecap="round" stroke-linejoin="round" stroke-width="1.25"/><path d="M449.456,81.665a12.162,12.162,0,0,1,10.474.44,44.342,44.342,0,0,0,5.167,24.621,42.26,42.26,0,0,0,18.537,19.893,13.247,13.247,0,0,1-6.207,10.782c-8.3,4.159-21.282-4.942-29-20.333S441.162,85.83,449.456,81.665Z" transform="translate(-423.528 64.046)" fill="#fff" stroke="#cd7518" stroke-linecap="round" stroke-linejoin="round" stroke-width="1.25"/><path d="M442.763,58.584l-.387,20.753,45.516,26.889.381-20.566Z" transform="translate(-425.582 -19.405)" fill="#fff" stroke="#cd7518" stroke-linecap="round" stroke-linejoin="round" stroke-width="1.25"/><path d="M447.4,71.275c3.543-1.776,9.077,2.11,12.387,8.686s3.1,13.37-.448,15.128-9.077-2.11-12.416-8.686S443.856,73.056,447.4,71.275Z" transform="translate(-417.283 26.881)" fill="#fff" stroke="#cd7518" stroke-linecap="round" stroke-linejoin="round" stroke-width="1.25"/></g><g transform="translate(229.894)"><path d="M510.906,26.986a18.294,18.294,0,0,0-15.758.659,66.751,66.751,0,0,1-7.784,37.069,63.638,63.638,0,0,1-27.9,29.949,19.932,19.932,0,0,0,9.369,16.235c12.491,6.265,32.041-7.439,43.659-30.608S523.4,33.25,510.906,26.986Z" transform="translate(-399.025 93.251)" fill="#fff" stroke="#214e43" stroke-linecap="round" stroke-linejoin="round" stroke-width="1.25"/><g transform="translate(0)"><path d="M657.545.642H633.192L500.745,79.88c-30.3,19.1-48.094,42.163-52.955,71.273-3.022,18.107,1.433,43.774,6.179,51.929,8.672,14.927,55.711,28.5,55.711,28.5L492.012,129.818,657.545,36.045Z" transform="translate(-446.804 -0.642)" fill="#fff" stroke="#214e43" stroke-linecap="round" stroke-linejoin="round" stroke-width="1.25"/></g><path d="M504.994,21.615c5.013,3.3,4.121,13.514-2,22.815s-15.15,14.163-20.159,10.859-4.117-13.514,2-22.81S499.981,18.3,504.994,21.615Z" transform="translate(-323.034 74.613)" fill="#fff" stroke="#214e43" stroke-linecap="round" stroke-linejoin="round" stroke-width="1.25"/><path d="M634.24,4.971,615.2,15.988S493.066,88.674,483.018,97.6c-48.42,43.024-26.206,97.316-15.967,107.44a43.883,43.883,0,0,0,49.928,6.517L634.24,143.586ZM536.1,156.694c-11.617,23.169-31.166,36.867-43.659,30.608s-13.2-30.126-1.585-53.295,31.166-36.867,43.659-30.608S547.721,133.525,536.1,156.694Z" transform="translate(-423.5 15.701)" fill="#fff" stroke="#214e43" stroke-linecap="round" stroke-linejoin="round" stroke-width="1.25"/><path d="M503.775,43.415c-4.962,9.9-13.312,15.758-18.651,13.074s-5.645-12.868-.679-22.762S497.763,17.969,503.1,20.647,508.723,33.525,503.775,43.415Z" transform="translate(-318.042 72.419)" fill="#fff" stroke="#214e43" stroke-linecap="round" stroke-linejoin="round" stroke-width="1.25"/></g><g transform="translate(340.129 242.109)"><path d="M487.588,58.165a11.37,11.37,0,0,1,8.161-.205,32.219,32.219,0,0,0,2.664,21.388,30.12,30.12,0,0,0,16.713,16.758,12.243,12.243,0,0,1-6.3,8.27c-7.869,3.62-19.01-3.787-24.878-16.545S479.715,61.789,487.588,58.165Z" transform="translate(-430.107 -28.859)" fill="#fff" stroke="#000" stroke-linecap="round" stroke-linejoin="round" stroke-width="1.25"/><path d="M499.914,51.94c17.826-3.452,30.56,8.949,35.966,15.64v38.943L515.615,74.053,479.153,63.324Z" transform="translate(-434.92 -51.345)" fill="#fff" stroke="#000" stroke-linecap="round" stroke-linejoin="round" stroke-width="1.25"/><path d="M570.83,92.875,559.288,73.12A57.1,57.1,0,0,0,543.53,57.037a27.169,27.169,0,0,0-28.6-.14l-39.972,23.88a8.856,8.856,0,0,0-4.388,7.741l-.679,103.729,100.941,56.9Zm-22.214,27.065c-6.563,3.29-16.827-3.91-22.92-16.073s-5.726-24.7.831-27.992,16.827,3.91,22.92,16.078,5.73,24.7-.831,27.988Z" transform="translate(-469.889 -45.47)" fill="#fff" stroke="#000" stroke-linecap="round" stroke-linejoin="round" stroke-width="1.25"/><path d="M491.793,73.974V84.093A13.718,13.718,0,0,1,491.793,73.974Z" transform="translate(-390.852 34.084)" fill="#fff" stroke="#000" stroke-linecap="round" stroke-linejoin="round" stroke-width="1.25"/><path d="M483.385,89.005c2.933,6.379,8.5,10.08,12.44,8.27s4.748-8.447,1.815-14.826-8.5-10.085-12.44-8.27S480.448,82.63,483.385,89.005Z" transform="translate(-425.602 33.115)" fill="#fff" stroke="#000" stroke-linecap="round" stroke-linejoin="round" stroke-width="1.25"/><path d="M475.352,77.367c2.933,6.375,8.5,10.08,12.44,8.27s4.748-8.451,1.815-14.832-8.5-10.08-12.444-8.27S472.416,70.988,475.352,77.367Z" transform="translate(-455.933 -10.829)" fill="#fff" stroke="#000" stroke-linecap="round" stroke-linejoin="round" stroke-width="1.25"/><path d="M516.046,118.6V102.184L479.674,81.6V97.866Z" transform="translate(-432.95 62.879)" fill="#fff" stroke="#000" stroke-linecap="round" stroke-linejoin="round" stroke-width="1.25"/></g><g transform="translate(258.363 451.189)"><path d="M600.759,152.7,504.891,97.1c-15.065-7.115-30.87,7.32-30.87,7.32L461.367,133.7l139.392,62.768Z" transform="translate(-420.297 -95.131)" fill="#fff" stroke="#cd7518" stroke-linecap="round" stroke-linejoin="round" stroke-width="1.25"/><path d="M478.963,142.357a38.587,38.587,0,0,0,20.388,20.891,14.078,14.078,0,0,1-6.628,7.052c-9.915,4.561-23.942-4.775-31.334-20.828s-5.343-32.79,4.569-37.351a14.523,14.523,0,0,1,10.95-.057,37.4,37.4,0,0,0,2.058,30.294Z" transform="translate(-436.983 -35.144)" fill="#fff" stroke="#cd7518" stroke-linecap="round" stroke-linejoin="round" stroke-width="1.25"/><path d="M500.064,170.882a38.6,38.6,0,0,0,20.38,20.891,14.052,14.052,0,0,1-6.628,7.058c-9.915,4.565-23.938-4.775-31.33-20.83s-5.343-32.795,4.572-37.354a14.544,14.544,0,0,1,10.95-.057,37.4,37.4,0,0,0,2.058,30.294Z" transform="translate(-357.329 72.549)" fill="#fff" stroke="#cd7518" stroke-linecap="round" stroke-linejoin="round" stroke-width="1.25"/><g transform="translate(0 8.35)"><path d="M633.225,166.313,515.591,98.445c-8.787-5.439-15.481,5.027-15.481,5.027s-40.014,45.106-45.62,60.26c-7.115,19.249,10.055,47.583,10.055,47.583L569.153,354.148c28.46,37.245,47.713,29.291,47.713,29.291L633.22,380Zm-124.339,57.9c-9.915,4.561-23.942-4.775-31.334-20.834s-5.343-32.786,4.569-37.346,23.942,4.775,31.334,20.834,5.368,32.783-4.569,37.344ZM609.777,360.739c-9.915,4.561-23.942-4.775-31.334-20.834s-5.343-32.786,4.569-37.346,23.942,4.775,31.334,20.834S619.692,356.178,609.777,360.739Z" transform="translate(-452.763 -96.878)" fill="#fff" stroke="#cd7518" stroke-linecap="round" stroke-linejoin="round" stroke-width="1.25"/><ellipse cx="9.207" cy="15.138" rx="9.207" ry="15.138" transform="matrix(0.897, -0.442, 0.442, 0.897, 74.78, 164.276)" fill="#fff" stroke="#cd7518" stroke-linecap="round" stroke-linejoin="round" stroke-width="1.25"/><ellipse cx="9.207" cy="15.138" rx="9.207" ry="15.138" transform="matrix(0.897, -0.442, 0.442, 0.897, 127.787, 154.775)" fill="#fff" stroke="#cd7518" stroke-linecap="round" stroke-linejoin="round" stroke-width="1.25"/><ellipse cx="9.207" cy="15.138" rx="9.207" ry="15.138" transform="matrix(0.897, -0.442, 0.442, 0.897, 59.295, 38.955)" fill="#fff" stroke="#cd7518" stroke-linecap="round" stroke-linejoin="round" stroke-width="1.25"/><path d="M478,107.637l48.544,29.3.838,26.364-49.8-29.3Z" transform="translate(-359.093 -56.268)" fill="#fff" stroke="#cd7518" stroke-linecap="round" stroke-linejoin="round" stroke-width="1.25"/></g></g><g transform="translate(91.704 199.636)"><circle cx="28.565" cy="28.565" r="28.565" transform="translate(0 87.031)" fill="#fff" stroke="#000" stroke-linecap="round" stroke-linejoin="round" stroke-width="1.25"/><path d="M420.88,44.75V126.3c0,2.751,3.434,8.629,14.167,8.629,9.827,0,14.167-5.878,14.167-8.629V44.75Z" transform="translate(-406.478 -33.767)" fill="#fff" stroke="#000" stroke-linecap="round" stroke-linejoin="round" stroke-width="1.25"/><circle cx="28.565" cy="28.565" r="28.565" transform="translate(0 0)" fill="#fff" stroke="#000" stroke-linecap="round" stroke-linejoin="round" stroke-width="1.25"/></g></g></svg>