<svg xmlns="http://www.w3.org/2000/svg" width="468.107" height="526.916" viewBox="0 0 468.107 526.916"><g transform="translate(0.645 0.625)"><g transform="translate(0 383.778)"><path d="M433.275,93.194a9.987,9.987,0,0,0-8.592.359,36.44,36.44,0,0,1-4.251,20.248A34.749,34.749,0,0,1,405.2,130.156a10.876,10.876,0,0,0,5.114,8.868c6.822,3.422,17.5-4.044,23.844-16.717S440.083,96.616,433.275,93.194Z" transform="translate(-372.161 -12.48)" fill="#fff" stroke="#000" stroke-linecap="round" stroke-linejoin="round" stroke-width="1.25"/><path d="M451.929,82.372a9.987,9.987,0,0,0-8.592.359,36.445,36.445,0,0,1-4.251,20.248,34.75,34.75,0,0,1-15.237,16.354,10.877,10.877,0,0,0,5.114,8.868c6.822,3.422,17.5-4.044,23.844-16.717S458.753,85.794,451.929,82.372Z" transform="translate(-296.54 -56.349)" fill="#fff" stroke="#000" stroke-linecap="round" stroke-linejoin="round" stroke-width="1.25"/><g transform="translate(0 0)"><path d="M543.132,77.838c-10.831-5.367-32,7.813-42.548,13.711L428.123,134.9c-16.553,10.436-26.28,23.03-28.923,38.914a56.1,56.1,0,0,0,3.376,28.363C407.305,210.33,433,217.744,433,217.744l-9.657-55.591L544.18,93.713c3.129-1.607,24.072-1.648,21.049-3.432Z" transform="translate(-398.659 -76.58)" fill="#fff" stroke="#000" stroke-linecap="round" stroke-linejoin="round" stroke-width="1.25"/></g><path d="M429.456,90.408c2.739,1.8,2.25,7.39-1.092,12.462s-8.277,7.733-11.012,5.928-2.25-7.378,1.092-12.458S426.717,88.608,429.456,90.408Z" transform="translate(-330.067 -22.808)" fill="#fff" stroke="#000" stroke-linecap="round" stroke-linejoin="round" stroke-width="1.25"/><path d="M515.326,87.065l-24.885,14.4s-66.71,39.693-72.189,44.57c-26.441,23.5-14.313,53.151-8.72,58.676a23.97,23.97,0,0,0,27.291,3.538l71.623-41.491c10.542-6.11,7.182-4.18,25.775-14.944A56.492,56.492,0,0,0,558.792,99.04C557.41,82.719,546.953,68.794,515.326,87.065Zm-68.074,91.246c-6.348,12.635-17.022,20.139-23.844,16.717s-7.213-16.456-.869-29.116,17.021-20.127,23.849-16.706,7.207,16.45.865,29.1Zm94.457-55.052c-6.348,12.635-17.022,20.139-23.844,16.713s-7.211-16.45-.869-29.1,17.022-20.139,23.844-16.717,7.211,16.459.868,29.109Z" transform="translate(-385.741 -69.114)" fill="#fff" stroke="#000" stroke-linecap="round" stroke-linejoin="round" stroke-width="1.25"/><path d="M428.749,102.335c-2.714,5.408-7.272,8.592-10.188,7.142s-3.083-7.029-.37-12.437,7.272-8.592,10.183-7.142S431.458,96.925,428.749,102.335Z" transform="translate(-327.309 -24.018)" fill="#fff" stroke="#000" stroke-linecap="round" stroke-linejoin="round" stroke-width="1.25"/></g><g transform="translate(203.164 251.362)"><path d="M438.861,59.476l22.742-9.1,83.939,47.906V230.341c-.97,21.833-1.117,40.43-10.05,46.06a114.987,114.987,0,0,1-28.705,10.9l2.022-187.876Z" transform="translate(-438.851 -50.379)" fill="#fff" stroke="#cd7518" stroke-linecap="round" stroke-linejoin="round" stroke-width="1.25"/><line x1="21.63" y2="9.101" transform="translate(85.071 47.9)" fill="#fff" stroke="#cd7518" stroke-linecap="round" stroke-linejoin="round" stroke-width="1.25"/><path d="M439.067,205.31a95.062,95.062,0,0,0,10.108,34.821c15.253,30.41,41.784,47.956,59.267,39.187,9.632-4.832,14.53-20.473,14.53-45.024,0-.823-.177-134.214-.177-134.214l-83.936-47.9Zm26.972-8c8.784-4.4,22.525,5.231,30.692,21.519s7.672,33.063-1.111,37.464-22.524-5.226-30.692-21.514-7.666-33.062,1.122-37.449Z" transform="translate(-438.859 -43.082)" fill="#fff" stroke="#cd7518" stroke-linecap="round" stroke-linejoin="round" stroke-width="1.25"/><path d="M449.837,81.722a12.872,12.872,0,0,1,11.085.466,46.93,46.93,0,0,0,5.469,26.058A44.727,44.727,0,0,0,486.01,129.3a14.02,14.02,0,0,1-6.57,11.411c-8.784,4.4-22.524-5.231-30.7-21.519S441.06,86.13,449.837,81.722Z" transform="translate(-422.396 72.495)" fill="#fff" stroke="#cd7518" stroke-linecap="round" stroke-linejoin="round" stroke-width="1.25"/><path d="M442.785,58.584l-.409,21.964,48.173,28.459.4-21.766Z" transform="translate(-424.602 -17.118)" fill="#fff" stroke="#cd7518" stroke-linecap="round" stroke-linejoin="round" stroke-width="1.25"/><path d="M447.568,71.3c3.75-1.88,9.607,2.233,13.11,9.193s3.28,14.15-.474,16.011-9.607-2.233-13.141-9.193S443.814,73.185,447.568,71.3Z" transform="translate(-415.69 32.586)" fill="#fff" stroke="#cd7518" stroke-linecap="round" stroke-linejoin="round" stroke-width="1.25"/></g><g transform="translate(243.314)"><path d="M513.909,27.072a19.362,19.362,0,0,0-16.678.7A70.648,70.648,0,0,1,488.993,67,67.353,67.353,0,0,1,459.46,98.7a21.1,21.1,0,0,0,9.916,17.183c13.221,6.63,33.911-7.873,46.208-32.394S527.135,33.7,513.909,27.072Z" transform="translate(-395.497 100.184)" fill="#fff" stroke="#214e43" stroke-linecap="round" stroke-linejoin="round" stroke-width="1.25"/><g transform="translate(0)"><path d="M669.847.642H644.072L503.894,84.506c-32.072,20.216-50.9,44.625-56.047,75.433-3.2,19.164,1.516,46.329,6.54,54.96,9.178,15.8,58.963,30.161,58.963,30.161l-18.7-107.7,175.2-99.247Z" transform="translate(-446.804 -0.642)" fill="#fff" stroke="#214e43" stroke-linecap="round" stroke-linejoin="round" stroke-width="1.25"/></g><path d="M506.477,21.675c5.306,3.492,4.362,14.3-2.118,24.147s-16.035,14.99-21.336,11.493-4.357-14.3,2.118-24.141S501.171,18.168,506.477,21.675Z" transform="translate(-313.895 80.17)" fill="#fff" stroke="#214e43" stroke-linecap="round" stroke-linejoin="round" stroke-width="1.25"/><path d="M644.821,4.971l-20.154,11.66S495.406,93.56,484.772,103c-51.246,45.535-27.736,103-16.9,113.712a46.444,46.444,0,0,0,52.842,6.9l124.106-71.936Zm-103.87,160.58c-12.3,24.521-32.986,39.019-46.208,32.394s-13.974-31.885-1.678-56.406,32.986-39.019,46.208-32.394S553.251,141.03,540.951,165.551Z" transform="translate(-421.78 16.908)" fill="#fff" stroke="#214e43" stroke-linecap="round" stroke-linejoin="round" stroke-width="1.25"/><path d="M505.11,44.782c-5.251,10.476-14.09,16.678-19.74,13.837S479.4,45,484.652,34.528s14.1-16.678,19.74-13.843S510.346,34.315,505.11,44.782Z" transform="translate(-308.534 77.814)" fill="#fff" stroke="#214e43" stroke-linecap="round" stroke-linejoin="round" stroke-width="1.25"/></g><g transform="translate(359.984 256.242)"><path d="M488.006,58.216A12.034,12.034,0,0,1,496.643,58a34.1,34.1,0,0,0,2.82,22.637,31.878,31.878,0,0,0,17.689,17.736,12.958,12.958,0,0,1-6.666,8.753c-8.328,3.831-20.12-4.008-26.33-17.511S479.673,62.051,488.006,58.216Z" transform="translate(-427.169 -27.198)" fill="#fff" stroke="#000" stroke-linecap="round" stroke-linejoin="round" stroke-width="1.25"/><path d="M501.126,51.975c18.867-3.654,32.344,9.471,38.065,16.553v41.217L517.743,75.379l-38.59-11.355Z" transform="translate(-432.338 -51.345)" fill="#fff" stroke="#000" stroke-linecap="round" stroke-linejoin="round" stroke-width="1.25"/><path d="M576.722,95.208,564.507,74.3a60.438,60.438,0,0,0-16.678-17.022,28.756,28.756,0,0,0-30.272-.148L475.251,82.4a9.373,9.373,0,0,0-4.644,8.192l-.718,109.785,106.833,60.226Zm-23.51,28.645c-6.947,3.482-17.81-4.138-24.258-17.012s-6.06-26.138.879-29.626,17.81,4.138,24.258,17.016S560.155,120.371,553.212,123.853Z" transform="translate(-469.889 -45.036)" fill="#fff" stroke="#000" stroke-linecap="round" stroke-linejoin="round" stroke-width="1.25"/><path d="M491.849,73.974V84.683A14.518,14.518,0,0,1,491.849,73.974Z" transform="translate(-385.016 40.391)" fill="#fff" stroke="#000" stroke-linecap="round" stroke-linejoin="round" stroke-width="1.25"/><path d="M483.488,89.9c3.1,6.751,9,10.668,13.166,8.753s5.025-8.94,1.921-15.692-9-10.674-13.166-8.753S480.379,83.151,483.488,89.9Z" transform="translate(-422.331 39.351)" fill="#fff" stroke="#000" stroke-linecap="round" stroke-linejoin="round" stroke-width="1.25"/><path d="M475.456,78.26c3.1,6.747,9,10.668,13.166,8.753s5.025-8.945,1.921-15.7-9-10.668-13.17-8.753S472.347,71.508,475.456,78.26Z" transform="translate(-454.903 -7.838)" fill="#fff" stroke="#000" stroke-linecap="round" stroke-linejoin="round" stroke-width="1.25"/><path d="M518.17,120.755V103.385L479.674,81.6V98.816Z" transform="translate(-430.222 71.313)" fill="#fff" stroke="#000" stroke-linecap="round" stroke-linejoin="round" stroke-width="1.25"/></g><g transform="translate(97.058 211.29)"><circle cx="30.232" cy="30.232" r="30.232" transform="translate(0 92.111)" fill="#fff" stroke="#000" stroke-linecap="round" stroke-linejoin="round" stroke-width="1.25"/><path d="M420.88,44.75v86.314c0,2.912,3.634,9.132,14.994,9.132,10.4,0,14.994-6.221,14.994-9.132V44.75Z" transform="translate(-405.638 -33.126)" fill="#fff" stroke="#000" stroke-linecap="round" stroke-linejoin="round" stroke-width="1.25"/><circle cx="30.232" cy="30.232" r="30.232" transform="translate(0 0)" fill="#fff" stroke="#000" stroke-linecap="round" stroke-linejoin="round" stroke-width="1.25"/></g></g></svg>